<svg width="40" height="40" viewBox="0 0 40 40" fill="none" xmlns="http://www.w3.org/2000/svg">
<path d="M18.2225 0.495483C19.3154 -0.165161 20.6846 -0.165161 21.7775 0.495483C22.545 0.959428 23.4635 1.1049 24.3368 0.900834C25.5803 0.610249 26.8824 1.03334 27.7177 1.99937C28.3043 2.67778 29.1328 3.09996 30.0265 3.17575C31.299 3.28366 32.4066 4.08842 32.9025 5.26528C33.2507 6.09175 33.9083 6.74931 34.7347 7.09753C35.9116 7.59339 36.7163 8.70104 36.8243 9.97353C36.9 10.8672 37.3222 11.6957 38.0006 12.2823C38.9667 13.1176 39.3898 14.4197 39.0992 15.6632C38.8951 16.5366 39.0406 17.455 39.5045 18.2225C40.1652 19.3154 40.1652 20.6846 39.5045 21.7775C39.0406 22.545 38.8951 23.4635 39.0992 24.3368C39.3898 25.5803 38.9667 26.8824 38.0006 27.7177C37.3222 28.3043 36.9 29.1328 36.8243 30.0265C36.7163 31.299 35.9116 32.4066 34.7347 32.9025C33.9083 33.2507 33.2507 33.9083 32.9025 34.7347C32.4066 35.9116 31.299 36.7163 30.0265 36.8243C29.1328 36.9 28.3043 37.3222 27.7177 38.0006C26.8824 38.9667 25.5803 39.3898 24.3368 39.0992C23.4635 38.8951 22.545 39.0406 21.7775 39.5045C20.6846 40.1652 19.3154 40.1652 18.2225 39.5045C17.455 39.0406 16.5366 38.8951 15.6632 39.0992C14.4197 39.3898 13.1176 38.9667 12.2823 38.0006C11.6957 37.3222 10.8672 36.9 9.97353 36.8243C8.70104 36.7163 7.59339 35.9116 7.09753 34.7347C6.74931 33.9083 6.09175 33.2507 5.26528 32.9025C4.08842 32.4066 3.28366 31.299 3.17575 30.0265C3.09996 29.1328 2.67778 28.3043 1.99937 27.7177C1.03334 26.8824 0.610249 25.5803 0.900834 24.3368C1.1049 23.4635 0.959428 22.545 0.495483 21.7775C-0.165161 20.6846 -0.165161 19.3154 0.495483 18.2225C0.959428 17.455 1.1049 16.5366 0.900834 15.6632C0.610249 14.4197 1.03334 13.1176 1.99937 12.2823C2.67778 11.6957 3.09996 10.8672 3.17575 9.97353C3.28366 8.70104 4.08842 7.59339 5.26528 7.09753C6.09175 6.74931 6.74931 6.09175 7.09753 5.26528C7.59339 4.08842 8.70104 3.28366 9.97353 3.17575C10.8672 3.09996 11.6957 2.67778 12.2823 1.99937C13.1176 1.03334 14.4197 0.610249 15.6632 0.900834C16.5365 1.1049 17.455 0.959428 18.2225 0.495483Z" fill="#E97171"/>
<mask id="mask0_2525_7744" style="mask-type:alpha" maskUnits="userSpaceOnUse" x="0" y="0" width="40" height="40">
<path d="M18.2225 0.495483C19.3154 -0.165161 20.6846 -0.165161 21.7775 0.495483C22.545 0.959428 23.4635 1.1049 24.3368 0.900834C25.5803 0.610249 26.8824 1.03334 27.7177 1.99937C28.3043 2.67778 29.1328 3.09996 30.0265 3.17575C31.299 3.28366 32.4066 4.08842 32.9025 5.26528C33.2507 6.09175 33.9083 6.74931 34.7347 7.09753C35.9116 7.59339 36.7163 8.70104 36.8243 9.97353C36.9 10.8672 37.3222 11.6957 38.0006 12.2823C38.9667 13.1176 39.3898 14.4197 39.0992 15.6632C38.8951 16.5366 39.0406 17.455 39.5045 18.2225C40.1652 19.3154 40.1652 20.6846 39.5045 21.7775C39.0406 22.545 38.8951 23.4635 39.0992 24.3368C39.3898 25.5803 38.9667 26.8824 38.0006 27.7177C37.3222 28.3043 36.9 29.1328 36.8243 30.0265C36.7163 31.299 35.9116 32.4066 34.7347 32.9025C33.9083 33.2507 33.2507 33.9083 32.9025 34.7347C32.4066 35.9116 31.299 36.7163 30.0265 36.8243C29.1328 36.9 28.3043 37.3222 27.7177 38.0006C26.8824 38.9667 25.5803 39.3898 24.3368 39.0992C23.4635 38.8951 22.545 39.0406 21.7775 39.5045C20.6846 40.1652 19.3154 40.1652 18.2225 39.5045C17.455 39.0406 16.5366 38.8951 15.6632 39.0992C14.4197 39.3898 13.1176 38.9667 12.2823 38.0006C11.6957 37.3222 10.8672 36.9 9.97353 36.8243C8.70104 36.7163 7.59339 35.9116 7.09753 34.7347C6.74931 33.9083 6.09175 33.2507 5.26528 32.9025C4.08842 32.4066 3.28366 31.299 3.17575 30.0265C3.09996 29.1328 2.67778 28.3043 1.99937 27.7177C1.03334 26.8824 0.610249 25.5803 0.900834 24.3368C1.1049 23.4635 0.959428 22.545 0.495483 21.7775C-0.165161 20.6846 -0.165161 19.3154 0.495483 18.2225C0.959428 17.455 1.1049 16.5366 0.900834 15.6632C0.610249 14.4197 1.03334 13.1176 1.99937 12.2823C2.67778 11.6957 3.09996 10.8672 3.17575 9.97353C3.28366 8.70104 4.08842 7.59339 5.26528 7.09753C6.09175 6.74931 6.74931 6.09175 7.09753 5.26528C7.59339 4.08842 8.70104 3.28366 9.97353 3.17575C10.8672 3.09996 11.6957 2.67778 12.2823 1.99937C13.1176 1.03334 14.4197 0.610249 15.6632 0.900834C16.5365 1.1049 17.455 0.959428 18.2225 0.495483Z" fill="#E97171"/>
</mask>
<g mask="url(#mask0_2525_7744)">
<rect x="-11" y="9.72363" width="43.7644" height="24.651" transform="rotate(-31.2807 -11 9.72363)" fill="url(#paint0_linear_2525_7744)"/>
</g>
<path d="M18.6589 2.87383C19.4835 2.37539 20.5165 2.37539 21.3411 2.87383C22.1435 3.3589 23.1038 3.51099 24.0169 3.29764C24.9551 3.07839 25.9375 3.3976 26.5677 4.12646C27.181 4.83575 28.0473 5.27715 28.9816 5.35638C29.9416 5.4378 30.7773 6.04498 31.1515 6.93289L31.6122 6.73875L31.1515 6.9329C31.5155 7.79698 32.203 8.48448 33.0671 8.84855C33.955 9.22266 34.5622 10.0584 34.6436 11.0184C34.7229 11.9527 35.1642 12.819 35.8735 13.4323C36.6024 14.0625 36.9216 15.0449 36.7024 15.9831C36.489 16.8962 36.6411 17.8565 37.1262 18.6589C37.6246 19.4835 37.6246 20.5165 37.1262 21.3411C36.6411 22.1435 36.489 23.1038 36.7024 24.0169C36.9216 24.9551 36.6024 25.9375 35.8735 26.5677C35.1642 27.181 34.7229 28.0473 34.6436 28.9816C34.5622 29.9416 33.955 30.7773 33.0671 31.1515C32.203 31.5155 31.5155 32.203 31.1515 33.0671C30.7773 33.955 29.9416 34.5622 28.9816 34.6436C28.0473 34.7229 27.181 35.1642 26.5677 35.8735C25.9375 36.6024 24.9551 36.9216 24.0168 36.7024C23.1038 36.489 22.1435 36.6411 21.3411 37.1262C20.5165 37.6246 19.4835 37.6246 18.6589 37.1262C17.8565 36.6411 16.8962 36.489 15.9831 36.7024C15.0449 36.9216 14.0625 36.6024 13.4323 35.8735C12.819 35.1642 11.9527 34.7229 11.0184 34.6436C10.0584 34.5622 9.22266 33.955 8.84855 33.0671C8.48448 32.203 7.79698 31.5155 6.9329 31.1515L6.73875 31.6122L6.93289 31.1515C6.04498 30.7773 5.4378 29.9416 5.35638 28.9816C5.27715 28.0473 4.83575 27.181 4.12646 26.5677C3.3976 25.9375 3.07839 24.9551 3.29763 24.0169C3.51099 23.1038 3.3589 22.1435 2.87383 21.3411C2.37539 20.5165 2.37539 19.4835 2.87383 18.6589C3.3589 17.8565 3.51099 16.8962 3.29763 15.9831C3.07839 15.0449 3.3976 14.0625 4.12646 13.4323C4.83575 12.819 5.27715 11.9527 5.35638 11.0184C5.4378 10.0584 6.04498 9.22266 6.93289 8.84855C7.79698 8.48448 8.48448 7.79698 8.84855 6.93289C9.22266 6.04498 10.0584 5.4378 11.0184 5.35638C11.9527 5.27715 12.819 4.83575 13.4323 4.12646C14.0625 3.3976 15.0449 3.07839 15.9831 3.29763C16.8962 3.51099 17.8565 3.3589 18.6589 2.87383Z" stroke="white"/>
<path d="M6.81348 22.6667L8.47814 17.3867H9.77248L11.4371 22.6667H10.5278L9.11675 18.2417L7.72281 22.6667H6.81348ZM8.08319 21.5227L8.34308 20.6977H9.89992L10.163 21.5227H8.08319Z" fill="white"/>
<path d="M12.1001 22.6667V17.3867H12.9837V19.8361L15.0921 17.3867H16.1774L13.9077 19.9754L16.3314 22.6667H15.2094L12.9837 20.2027V22.6667H12.1001Z" fill="white"/>
<path d="M20.8778 23.4991V22.6667H16.8481V17.3867H17.7318V21.8821H20.2911V17.5077H21.1748V21.8821H21.7614V23.4991H20.8778Z" fill="white"/>
<path d="M26.5868 22.6667H25.6921V18.9451L23.2428 22.6667H22.3481V17.3867H23.2428V21.1084L25.6921 17.3867H26.5868V22.6667Z" fill="white"/>
<path d="M31.4251 22.6667H30.5451V20.8224H29.2866C28.9721 20.7982 28.6618 20.7968 28.367 20.6663C28.1307 20.5653 27.9425 20.4157 27.8025 20.2174C27.5849 19.9069 27.4761 19.5366 27.4761 19.1064C27.4761 18.8155 27.525 18.5515 27.6228 18.3144C27.7206 18.0748 27.8685 17.8768 28.0665 17.7204C28.2645 17.5639 28.5162 17.4625 28.8218 17.4161C28.8927 17.4038 28.9672 17.3965 29.0455 17.3941C29.1261 17.3892 29.1921 17.3867 29.2435 17.3867H31.4251V22.6667ZM28.3928 22.6667H27.3918L28.367 20.6663C28.6618 20.7968 28.9721 20.7982 29.2866 20.8224L28.3928 22.6667ZM30.5451 19.9974V18.2154H29.2801C29.2312 18.2154 29.1762 18.2178 29.1151 18.2227C29.054 18.2252 28.9978 18.2337 28.9464 18.2484C28.7998 18.2851 28.6837 18.3498 28.5981 18.4427C28.515 18.5356 28.4563 18.6419 28.4221 18.7617C28.3879 18.8791 28.3708 18.9939 28.3708 19.1064C28.3708 19.2188 28.3879 19.3337 28.4221 19.4511C28.4563 19.5684 28.515 19.6735 28.5981 19.7664C28.6837 19.8593 28.7998 19.9241 28.9464 19.9607C28.9978 19.9754 29.054 19.9852 29.1151 19.9901C29.1762 19.9949 29.2312 19.9974 29.2801 19.9974H30.5451Z" fill="white"/>
<path d="M32.8196 22.6667V21.8564H33.7033V22.6667H32.8196ZM32.8196 21.3467V17.3867H33.7033V21.3467H32.8196Z" fill="white"/>
<defs>
<linearGradient id="paint0_linear_2525_7744" x1="14.4734" y1="32.5702" x2="12.6953" y2="15.3339" gradientUnits="userSpaceOnUse">
<stop stop-color="#EE8787"/>
<stop offset="1" stop-color="#EE8787" stop-opacity="0"/>
</linearGradient>
</defs>
</svg>
