<svg width="20" height="18" viewBox="0 0 20 18" fill="none" xmlns="http://www.w3.org/2000/svg">
<path fill-rule="evenodd" clip-rule="evenodd" d="M8.16402 0.500695C6.16628 0.557652 3.66708 0.763914 3.12153 0.916868C2.43128 1.11042 1.63942 1.63041 1.19 2.18527C0.536897 2.99164 0.336111 3.62646 0.159466 5.44366C-0.0531555 7.6307 -0.0531555 9.3491 0.159466 11.5361C0.336111 13.3533 0.536897 13.9882 1.19 14.7945C1.63512 15.3441 2.44069 15.8732 3.12153 16.0633C3.5697 16.1884 4.81836 16.3085 6.97259 16.4337C8.09558 16.4989 11.9044 16.4989 13.0274 16.4337C15.1849 16.3083 16.4313 16.1883 16.8785 16.0629C17.5687 15.8694 18.3606 15.3494 18.81 14.7945C19.4631 13.9882 19.6639 13.3533 19.8405 11.5361C20.0532 9.3491 20.0532 7.6307 19.8405 5.44366C19.6954 3.9502 19.5592 3.37703 19.2017 2.75523C18.6294 1.75983 17.6166 1.0297 16.5431 0.838547C15.9524 0.733412 13.844 0.578294 12.129 0.513882C11.1884 0.47853 9.17615 0.471836 8.16402 0.500695Z" fill="#F4F5F6"/>
<path fill-rule="evenodd" clip-rule="evenodd" d="M8.40898 1.7778C6.67761 1.82565 4.51164 1.99891 4.03882 2.12739C3.4406 2.28998 2.75433 2.72676 2.36483 3.19284C1.79881 3.8702 1.62479 4.40345 1.4717 5.9299C1.28743 7.76701 1.28743 9.21047 1.4717 11.0476C1.62479 12.574 1.79881 13.1073 2.36483 13.7846C2.7506 14.2462 3.44876 14.6907 4.03882 14.8504C4.42724 14.9555 5.50941 15.0563 7.37641 15.1615C8.34967 15.2163 11.6507 15.2163 12.6239 15.1615C14.4937 15.0562 15.574 14.9554 15.9615 14.8501C16.5597 14.6875 17.246 14.2507 17.6355 13.7846C18.2015 13.1073 18.3755 12.574 18.5286 11.0476C18.7129 9.21047 18.7129 7.76701 18.5286 5.9299C18.4028 4.67539 18.2848 4.19392 17.9749 3.67162C17.479 2.83548 16.6012 2.22217 15.6709 2.0616C15.1589 1.97329 13.3316 1.84299 11.8453 1.78888C11.0301 1.75919 9.28616 1.75356 8.40898 1.7778ZM11.8453 3.13604C12.843 3.17305 13.9179 3.24001 14.8414 3.32274C15.5165 3.38317 15.8478 3.47391 16.1702 3.68677C16.5358 3.92807 16.8434 4.33203 16.9872 4.75953C17.0507 4.94804 17.1534 5.70074 17.2344 6.56961C17.3156 7.4415 17.3156 9.53598 17.2344 10.4079C17.1534 11.2767 17.0507 12.0294 16.9872 12.2179C16.8844 12.5236 16.7227 12.7813 16.4844 13.0192C16.0571 13.446 15.7236 13.5749 14.8414 13.6544C11.8268 13.926 8.89355 13.9426 5.80215 13.7055C5.30872 13.6677 4.80049 13.6221 4.67278 13.6043C3.90716 13.4976 3.26242 12.959 3.01308 12.2179C2.94964 12.0294 2.84689 11.2767 2.76591 10.4079C2.68469 9.53598 2.68469 7.4415 2.76591 6.56961C2.84689 5.70074 2.94964 4.94804 3.01308 4.75953C3.26489 4.01113 3.91068 3.47671 4.69059 3.37126C5.25509 3.29496 7.32481 3.1587 8.44284 3.12426C9.2387 3.09975 11.0341 3.10598 11.8453 3.13604ZM7.88423 5.38749C7.72034 5.46271 7.61718 5.5693 7.54731 5.73569C7.5015 5.84468 7.495 6.19053 7.49564 8.47924C7.49635 10.9395 7.50011 11.1063 7.55804 11.2331C7.68333 11.5073 7.99676 11.6833 8.27627 11.6363C8.35102 11.6238 8.75071 11.4199 9.21192 11.159C9.65477 10.9085 10.6341 10.3549 11.3882 9.92883C12.1423 9.50275 12.8309 9.10943 12.9183 9.05478C13.2666 8.83711 13.351 8.35628 13.0941 8.05266C13.0424 7.99155 12.5145 7.67156 11.7666 7.24794C8.88112 5.61368 8.52223 5.41227 8.41853 5.36914C8.26713 5.30621 8.0447 5.31382 7.88423 5.38749ZM11.0958 8.42032C11.1701 8.46618 11.1819 8.48682 11.1466 8.50884C11.0375 8.57685 8.87242 9.80183 8.86132 9.80183C8.85461 9.80183 8.84909 9.20451 8.84909 8.47443V7.14703L9.92399 7.75378C10.5152 8.08751 11.0425 8.38743 11.0958 8.42032Z" fill="#F40000"/>
</svg>
