<svg width="56" height="57" viewBox="0 0 56 57" fill="none" xmlns="http://www.w3.org/2000/svg">
    <path fill-rule="evenodd" clip-rule="evenodd" d="M22.4942 2.07161C21.4036 2.36134 20.8339 2.72451 19.7933 3.79314C18.47 5.15233 18.2752 5.2345 16.3999 5.22536C14.339 5.21528 13.4117 5.54365 12.2361 6.69975C11.6103 7.31494 11.2258 7.96035 10.9144 8.91814C10.4317 10.4023 9.89655 10.9433 8.44658 11.4128C6.68424 11.9833 5.43403 13.1823 4.92803 14.7875C4.75372 15.3403 4.71673 15.723 4.7239 16.8997C4.73533 18.7785 4.65409 18.9704 3.28733 20.2932C2.19803 21.3475 1.86323 21.8819 1.5653 23.0419C1.24285 24.2978 1.37561 25.2142 2.10776 26.7858C2.52755 27.687 2.59164 27.9141 2.59164 28.4998C2.59164 29.0856 2.52755 29.3127 2.10776 30.2139C1.3755 31.7856 1.24274 32.7022 1.5655 33.9578C1.85616 35.0891 2.20967 35.6513 3.29336 36.7065C4.65347 38.0307 4.73533 38.2249 4.7239 40.1C4.71673 41.2767 4.75372 41.6594 4.92803 42.2122C5.43403 43.8174 6.68424 45.0164 8.44658 45.5869C9.89655 46.0564 10.4317 46.5974 10.9144 48.0816C11.2426 49.091 11.6265 49.7107 12.3427 50.3874C13.5165 51.4962 14.358 51.784 16.402 51.7753C18.2835 51.7673 18.4729 51.8477 19.7933 53.2142C20.8558 54.3138 21.5622 54.7455 22.6811 54.9788C23.9202 55.2371 24.7684 55.0992 26.2859 54.3922C27.187 53.9724 27.4141 53.9083 27.9999 53.9083C28.5857 53.9083 28.8128 53.9724 29.7139 54.3922C31.2857 55.1244 32.2022 55.2572 33.4578 54.9344C34.5891 54.6438 35.1513 54.2903 36.2065 53.2066C37.5292 51.848 37.7244 51.7655 39.5999 51.7731C41.6228 51.7813 42.4693 51.4979 43.6223 50.4262C44.3125 49.7846 44.7624 49.0558 45.0869 48.0533C45.5563 46.6033 46.0973 46.0681 47.5815 45.5855C48.5909 45.2572 49.2106 44.8734 49.8873 44.1571C50.9946 42.9851 51.2813 42.1455 51.273 40.0999C51.2654 38.2244 51.3479 38.0292 52.7064 36.7065C53.7901 35.6513 54.1436 35.0891 54.4343 33.9578C54.7571 32.7022 54.6243 31.7856 53.892 30.2139C53.4723 29.3127 53.4082 29.0856 53.4082 28.4998C53.4082 27.9141 53.4723 27.687 53.892 26.7858C54.6243 25.2141 54.7571 24.2975 54.4343 23.0419C54.1436 21.9106 53.7901 21.3484 52.7064 20.2932C51.3473 18.9698 51.2651 18.7751 51.2742 16.8998C51.2843 14.8389 50.956 13.9115 49.7999 12.7359C49.1847 12.1101 48.5393 11.7257 47.5815 11.4142C46.0928 10.9301 45.5532 10.3941 45.0866 8.93539C44.5173 7.156 43.272 5.88708 41.6083 5.39105C41.1931 5.26733 40.6444 5.22234 39.5999 5.2266C37.7196 5.23419 37.5276 5.15254 36.2065 3.78545C35.144 2.68586 34.4376 2.25424 33.3187 2.02092C32.0796 1.76256 31.2314 1.90052 29.7139 2.60754C28.8128 3.02732 28.5857 3.09142 27.9999 3.09142C27.4141 3.09142 27.187 3.02732 26.2859 2.60754C25.7145 2.34129 25.0367 2.07577 24.7796 2.01739C24.1279 1.86935 23.1698 1.8921 22.4942 2.07161ZM25.2774 4.42297C26.3735 4.99308 27.0071 5.16594 27.9999 5.16594C28.9918 5.16594 29.6264 4.99297 30.718 4.42526C31.6367 3.9474 32.4768 3.86887 33.3083 4.1829C33.8869 4.40147 34.2631 4.71145 35.1805 5.72596C35.784 6.3933 36.4855 6.84165 37.339 7.10541C37.8758 7.27131 38.2832 7.30912 39.4511 7.30143C40.8134 7.2925 40.9309 7.30798 41.4573 7.5655C42.2951 7.97542 42.782 8.59486 43.1613 9.73362C43.8092 11.6785 44.8767 12.7271 46.8724 13.3791C47.8873 13.7107 48.5269 14.2214 48.9232 15.0167C49.174 15.5199 49.1916 15.6526 49.1916 17.0304C49.1916 18.2141 49.2329 18.6388 49.4003 19.1811C49.6802 20.0871 50.3217 21.0189 51.0706 21.6073C52.5346 22.7575 52.8828 24.2252 52.0651 25.7989C51.5066 26.8737 51.3337 27.5123 51.3337 28.4998C51.3337 29.4873 51.5066 30.126 52.0651 31.2008C52.8828 32.7745 52.5346 34.2422 51.0706 35.3924C50.3217 35.9808 49.6802 36.9126 49.4003 37.8186C49.2329 38.3609 49.1916 38.7856 49.1916 39.9693C49.1916 41.3471 49.174 41.4798 48.9232 41.983C48.5147 42.8027 47.8941 43.2855 46.766 43.6614C44.8212 44.3093 43.7726 45.3768 43.1205 47.3725C42.7855 48.3979 42.2704 49.0364 41.4573 49.4342C40.9309 49.6917 40.8134 49.7072 39.4511 49.6983C38.2727 49.6905 37.8776 49.7278 37.3234 49.899C36.4129 50.1802 35.4818 50.8205 34.8924 51.5707C33.7422 53.0347 32.2745 53.3829 30.7008 52.5652C29.6261 52.0067 28.9874 51.8338 27.9999 51.8338C27.0124 51.8338 26.3737 52.0067 25.299 52.5652C23.7253 53.3829 22.2576 53.0347 21.1074 51.5707C20.518 50.8205 19.5869 50.1802 18.6764 49.899C18.1236 49.7282 17.7269 49.6905 16.5642 49.6982C14.9652 49.7087 14.5605 49.6006 13.8449 48.9722C13.333 48.5229 13.1016 48.1244 12.7989 47.1712C12.2225 45.356 11.0916 44.2623 9.12742 43.6206C8.10201 43.2855 7.46345 42.7704 7.06569 41.9573C6.80817 41.4309 6.79269 41.3135 6.80163 39.9511C6.80931 38.7832 6.7715 38.3758 6.6056 37.839C6.34185 36.9855 5.8935 36.284 5.22617 35.6805C4.21166 34.7631 3.90168 34.3869 3.68312 33.8083C3.36909 32.9767 3.44762 32.1366 3.92547 31.2179C4.49318 30.1263 4.66614 29.4917 4.66614 28.4998C4.66614 27.5015 4.49349 26.8736 3.91072 25.7537C3.57674 25.1119 3.53592 24.9478 3.53592 24.2475C3.53592 23.1523 3.88267 22.453 4.78363 21.731C5.56721 21.1032 6.19226 20.2902 6.51305 19.4821C6.71489 18.9735 6.75166 18.6656 6.77649 17.2806C6.80911 15.4595 6.92254 15.0063 7.50812 14.3582C7.98909 13.8258 8.37376 13.602 9.32864 13.2987C11.1026 12.7354 12.2832 11.5404 12.8259 9.75865C13.1847 8.58042 13.7186 7.91662 14.6322 7.51314C15.068 7.32065 15.3172 7.29333 16.5642 7.30154C17.7269 7.30922 18.1236 7.27152 18.6764 7.10073C19.6003 6.81537 20.5088 6.18408 21.1435 5.38637C21.9754 4.34091 22.7336 3.96257 23.875 4.02313C24.4324 4.05264 24.7271 4.13668 25.2774 4.42297ZM25.8184 8.24645C18.7957 9.10004 12.8764 13.2435 9.77886 19.4738C4.77823 29.532 8.88652 41.7058 18.9739 46.721C29.0342 51.7227 41.2047 47.6155 46.2209 37.5259C49.0844 31.7664 49.0604 25.0751 46.1559 19.334C45.7578 18.5471 45.3134 17.81 45.1683 17.6959C44.8828 17.4714 44.3144 17.4227 43.9919 17.5954C43.7067 17.748 43.4483 18.3001 43.5126 18.6195C43.5426 18.7687 43.7787 19.2648 44.0372 19.7218C46.0977 23.3653 46.7881 28.1768 45.8558 32.3954C45.2733 35.031 43.9248 37.8708 42.304 39.8749C35.4729 48.3216 23.1661 49.1283 15.3389 41.6423C9.5901 36.1442 8.07645 27.4654 11.6325 20.3911C14.8988 13.8931 21.5661 9.93826 28.7271 10.2511C31.637 10.3782 34.461 11.153 36.7701 12.4576C37.7962 13.0374 37.9711 13.0812 38.4168 12.8697C39.0073 12.5894 39.2005 11.8357 38.8091 11.3382C38.5809 11.048 36.3228 9.86336 35.2196 9.45511C34.0572 9.02483 32.7135 8.66405 31.428 8.43707C30.0618 8.19585 27.0712 8.09426 25.8184 8.24645ZM41.1752 13.9076C40.6425 14.1968 40.5569 15.0696 41.0198 15.4928C41.7317 16.1438 42.751 15.6658 42.751 14.6808C42.751 13.9594 41.873 13.5286 41.1752 13.9076Z" fill="#4772DA"/>
    <path fill-rule="evenodd" clip-rule="evenodd" d="M37.4663 20.2819C37.3372 20.3819 34.7037 23.2182 31.6142 26.5848C28.5247 29.9513 25.9687 32.7057 25.934 32.7057C25.8994 32.7057 24.2304 31.0208 22.2251 28.9614C18.2076 24.8355 18.2343 24.8576 17.5423 25.095C17.0633 25.2592 16.7999 25.6471 16.7999 26.1882C16.7999 26.579 16.8237 26.6188 17.4498 27.2784C19.3625 29.2934 25.3701 35.4045 25.4784 35.4454C25.7771 35.5583 26.3329 35.4887 26.5934 35.3059C26.8748 35.1084 38.9709 21.9466 39.1157 21.6804C39.162 21.5951 39.1999 21.3501 39.1999 21.1358C39.1999 20.794 39.1595 20.7063 38.8718 20.423C38.5784 20.1342 38.4989 20.1 38.1224 20.1C37.8173 20.1 37.6365 20.1501 37.4663 20.2819Z" fill="#4772DA"/>
</svg>
