<svg width="57" height="57" viewBox="0 0 57 57" fill="none" xmlns="http://www.w3.org/2000/svg">
    <path fill-rule="evenodd" clip-rule="evenodd" d="M24.4946 1.97475C23.9829 2.18274 23.8928 2.51553 23.8553 4.33569L23.8203 6.03052H19.2438C16.0783 6.03052 14.5973 6.0663 14.4401 6.14669C13.919 6.41302 13.8534 6.61998 13.8509 8.00511L13.8486 9.30362L13.4922 8.7748C12.7951 7.74013 11.5599 6.90285 10.365 6.65503C10.0035 6.57994 8.80064 6.54957 7.01219 6.57027C4.34216 6.60115 4.20262 6.6127 3.74081 6.84243C2.96079 7.23023 2.44081 7.74658 2.06839 8.50295C1.75871 9.13182 1.72666 9.28386 1.73436 10.0845C1.74081 10.7516 1.79784 11.0926 1.96527 11.4653C2.29367 12.1967 3.02406 12.9212 3.78264 13.268C4.39295 13.5469 4.52989 13.5669 6.09627 13.6041L7.76121 13.6436L11.4304 28.5825C13.8261 38.3364 15.1922 43.7109 15.3663 44.0674C15.7112 44.7737 16.5543 45.693 17.2996 46.1754C17.8901 46.5577 18.684 46.8263 19.5853 46.9488L20.0672 47.0144L19.7721 47.5587C18.9626 49.0526 18.9567 50.9655 19.7574 52.456C19.9128 52.7455 20.3213 53.2639 20.6651 53.6078C22.6688 55.6125 25.8803 55.5952 27.8767 53.5688C29.4573 51.9644 29.8075 49.4743 28.7229 47.5513L28.415 47.0053H32.3788C34.5588 47.0053 36.3266 47.0404 36.3073 47.0833C36.2878 47.1262 36.1398 47.4128 35.9782 47.7202C34.4854 50.559 36.1993 54.2395 39.3471 54.955C40.5777 55.2347 41.7945 55.0952 42.8684 54.5514C43.5145 54.2243 44.4379 53.3804 44.8399 52.7499C45.8076 51.2319 45.8751 49.1092 45.0057 47.5382C44.8672 47.2879 44.7539 47.0721 44.7539 47.0585C44.7539 47.0449 45.308 47.011 45.9852 46.9832C47.0174 46.9407 47.3106 46.8895 47.7984 46.6663C48.5762 46.3104 49.2293 45.6885 49.5951 44.9555C49.8538 44.4372 49.8963 44.2303 49.9002 43.4694C49.9042 42.7124 49.8628 42.4958 49.6127 41.9615C49.4367 41.5857 49.112 41.1418 48.7965 40.8455L48.2723 40.3534L48.6343 39.9307C48.8335 39.6983 49.1374 39.2411 49.3097 38.9148C49.7165 38.1446 54.8482 20.4886 54.9233 19.6006C54.9822 18.9033 54.7791 17.9434 54.4261 17.252C53.9843 16.3864 52.9196 15.4743 52.0162 15.1875L51.6303 15.0649L51.6 11.9024C51.57 8.7698 51.5675 8.73767 51.3328 8.50315C51.0974 8.26791 51.0726 8.26615 47.4306 8.21446L43.7654 8.16246L43.7133 5.27925C43.6623 2.45105 43.6568 2.39157 43.4242 2.15934L43.1873 1.92264L33.9549 1.90236C28.7381 1.89093 24.6235 1.92244 24.4946 1.97475ZM41.6322 9.46242V14.9743H40.1717C38.5049 14.9743 38.2764 15.0533 38.0835 15.6968C37.9883 16.0141 37.9979 16.1436 38.1359 16.4103C38.2286 16.5894 38.4094 16.796 38.5375 16.8691C38.7169 16.9715 40.2244 17.0142 45.0832 17.0542L51.3959 17.1062L51.847 17.4188C52.3766 17.7858 52.8704 18.6637 52.8704 19.2379C52.8704 19.6996 47.7758 37.338 47.4686 37.9396C46.9796 38.8976 46.1512 39.5404 45.0814 39.7921C44.6114 39.9025 42.1966 39.9306 33.0275 39.9319C26.721 39.9328 21.5398 39.8984 21.5136 39.8555C21.4572 39.763 15.9298 17.2891 15.9298 17.1524C15.9298 17.0977 18.8885 17.0467 23.0143 17.0303L30.0989 17.0022L30.4024 16.6625C30.8174 16.1984 30.8172 15.6933 30.4019 15.2782C30.108 14.9846 30.0639 14.9743 29.1012 14.9743H28.1046V11.019C28.1046 6.77566 28.0803 6.55581 27.5721 6.20014C27.406 6.08387 27.1082 6.03052 26.6246 6.03052H25.9194V4.99055V3.95058H33.7758H41.6322V9.46242ZM25.9989 11.5164L25.9714 14.9223L20.9506 14.9493L15.9298 14.9762V11.5434V8.11046H20.9781H26.0262L25.9989 11.5164ZM10.594 8.91717C11.1483 9.21314 11.7065 9.76734 11.9697 10.283C12.0818 10.5025 13.8614 17.5561 15.9245 25.9578C17.9875 34.3594 19.7341 41.346 19.8057 41.4836C20.0914 42.0319 19.6066 42.0135 33.7304 42.0135C48.4168 42.0135 47.2088 41.9481 47.67 42.7682C48.0938 43.5216 47.7989 44.3711 46.9891 44.729C46.5487 44.9237 46.1648 44.9284 32.924 44.9013L19.3117 44.8734L18.8307 44.6511C18.1999 44.3596 17.5781 43.7892 17.2894 43.2373C17.1484 42.9678 15.5739 36.7524 13.2821 27.4192C10.2154 14.9305 9.46464 12.0025 9.28191 11.8196C9.06932 11.6068 8.93706 11.5914 6.90023 11.5424C4.83249 11.4925 4.72905 11.4801 4.39357 11.2409C3.76506 10.793 3.59471 10.0358 3.97161 9.3655C4.38389 8.63232 4.41625 8.62566 7.44903 8.65572C10.031 8.6812 10.1746 8.69316 10.594 8.91717ZM49.5406 12.636V14.9776L46.653 14.9499L43.7654 14.9223L43.7374 12.6083L43.7094 10.2944H46.625H49.5406V12.636ZM33.6987 15.2184C33.3403 15.5503 33.2498 16.0172 33.4639 16.4308C33.6603 16.8103 34.2274 17.0884 34.6094 16.9926C35.0015 16.8943 35.3887 16.3744 35.3887 15.9462C35.3887 15.119 34.3083 14.6537 33.6987 15.2184ZM28.5134 20.2123C26.5993 20.7281 25.5546 22.7077 26.1973 24.6015C26.434 25.2991 27.4374 26.2944 28.1566 26.5454C30.3473 27.3097 32.6137 25.7357 32.6137 23.45C32.6137 21.8802 31.6378 20.622 30.1118 20.2248C29.411 20.0423 29.1516 20.0404 28.5134 20.2123ZM36.7815 21.6906C36.4152 21.8712 36.6403 21.4387 32.8791 29.1883C31.3632 32.3116 30.4979 34.2101 30.4979 34.4124C30.4979 34.886 30.9747 35.3741 31.4507 35.3875C31.6567 35.3934 31.9397 35.3233 32.0794 35.2318C32.2597 35.1137 33.181 33.3217 35.2573 29.0497C36.8655 25.7411 38.2123 22.9104 38.2503 22.7593C38.3488 22.3666 38.0519 21.8532 37.6224 21.6738C37.189 21.4929 37.1822 21.493 36.7815 21.6906ZM30.0369 22.4244C30.2449 22.5605 30.413 22.8255 30.5342 23.2082C30.6313 23.5145 30.3978 24.1042 30.0707 24.3793C29.5804 24.7916 28.9223 24.756 28.4584 24.2924C27.4116 23.2462 28.7939 21.6104 30.0369 22.4244ZM38.6145 30.3529C37.6209 30.6797 36.8564 31.3408 36.4454 32.2288C36.231 32.6918 36.1768 32.9681 36.1779 33.5897C36.1797 34.5578 36.4457 35.2048 37.127 35.8979C37.8184 36.6015 38.4649 36.8628 39.499 36.857C40.521 36.8512 41.1423 36.5878 41.8584 35.8566C43.3972 34.2855 42.926 31.5847 40.944 30.6155C40.331 30.3157 39.1368 30.1811 38.6145 30.3529ZM40.0747 32.4995C40.6549 32.7993 40.8685 33.6291 40.5181 34.222C40.324 34.5502 39.8159 34.8379 39.4312 34.8373C38.855 34.8363 38.1982 34.1263 38.1982 33.5044C38.1982 33.2285 38.6238 32.6295 38.9298 32.4748C39.2764 32.2995 39.7056 32.3088 40.0747 32.4995ZM25.5864 47.3233C26.5954 47.8272 27.1575 48.6553 27.247 49.7699C27.3239 50.7279 27.0687 51.3852 26.3348 52.1186C25.8628 52.5904 25.6201 52.7458 25.1365 52.8863C24.0502 53.202 22.9404 52.9277 22.1331 52.1442C21.5546 51.5827 21.3132 51.0238 21.261 50.1252C21.2188 49.3985 21.2397 49.2994 21.566 48.6725C21.808 48.2074 22.0722 47.8818 22.4217 47.618C23.0518 47.1419 23.3962 47.0293 24.2638 47.0159C24.8335 47.0071 25.0575 47.0592 25.5864 47.3233ZM41.8923 47.2913C43.3411 48.0446 43.9605 49.8692 43.256 51.3083C42.9512 51.9308 42.4934 52.3873 41.8113 52.7488C41.1439 53.1025 39.8982 53.0812 39.1774 52.7038C36.777 51.447 37.0752 47.9409 39.6544 47.0964C40.1271 46.9416 41.4396 47.0559 41.8923 47.2913Z" fill="#4772DA"/>
</svg>
