<svg width="56" height="57" viewBox="0 0 56 57" fill="none" xmlns="http://www.w3.org/2000/svg">
    <path fill-rule="evenodd" clip-rule="evenodd" d="M3.50294 3.47169C2.45794 3.83311 1.7162 4.65731 1.49055 5.70782C1.4091 6.08731 1.38538 12.5052 1.40806 28.1015L1.43979 49.9633L1.65888 50.4359C1.97909 51.1269 2.46772 51.6301 3.13737 51.9584L3.72848 52.2481L13.611 52.2762C20.9311 52.2969 23.569 52.2729 23.7849 52.1836C24.2905 51.9746 24.5047 51.3395 24.2544 50.7912C23.985 50.2008 24.3865 50.2229 13.9236 50.2229C3.4606 50.2229 3.86216 50.245 3.59272 49.6546C3.49795 49.447 3.4684 45.3351 3.4684 32.3548V15.3272H28.0198H52.5713V32.3648C52.5713 50.8924 52.6056 49.8243 52.002 50.0988C51.7968 50.1922 49.3454 50.2229 42.106 50.2229C31.654 50.2229 32.0547 50.2009 31.7853 50.7912C31.535 51.3395 31.7492 51.9746 32.2548 52.1836C32.4707 52.2729 35.1086 52.2969 42.4287 52.2762C52.2277 52.2483 52.3152 52.2463 52.7847 52.0294C53.4768 51.7097 53.9808 51.2219 54.3097 50.5534L54.5999 49.9633V27.79V5.61663L54.3097 5.02652C53.9808 4.358 53.4768 3.87019 52.7847 3.55052L52.3112 3.3318L28.1759 3.30874C5.21905 3.28683 4.01436 3.29482 3.50294 3.47169ZM52.002 5.4811C52.5516 5.73108 52.5713 5.87762 52.5713 9.71377V13.2501H28.0198H3.4684L3.47204 9.69299C3.476 5.89123 3.48952 5.78447 4 5.50198C4.34768 5.30953 51.5799 5.28907 52.002 5.4811ZM7.53708 8.40995C6.63523 8.90898 7.01255 10.3421 8.04579 10.3421C8.57292 10.3421 9.08611 9.83476 9.08611 9.31361C9.08611 8.53385 8.22296 8.03036 7.53708 8.40995ZM12.5306 8.40995C11.6287 8.90898 12.0061 10.3421 13.0393 10.3421C13.5664 10.3421 14.0796 9.83476 14.0796 9.31361C14.0796 8.53385 13.2165 8.03036 12.5306 8.40995ZM17.5241 8.40995C16.6223 8.90898 16.9996 10.3421 18.0328 10.3421C18.5599 10.3421 19.0731 9.83476 19.0731 9.31361C19.0731 8.53385 18.21 8.03036 17.5241 8.40995ZM32.5658 20.3223C31.4652 20.5809 30.2338 21.4765 29.5794 22.4947C29.121 23.2078 28.8521 24.1323 28.8521 24.9951V25.7128H26.8652C25.2689 25.7128 24.8102 25.7451 24.5316 25.8771C24.1998 26.0343 24.1653 26.0301 23.7356 25.7814C22.4842 25.0572 20.9037 24.9983 19.5784 25.6266C18.0863 26.3341 17.1801 27.6082 16.989 29.2678C16.9346 29.7402 16.8897 30.1355 16.8893 30.1461C16.8888 30.1568 16.0468 30.1802 15.018 30.1981L13.1475 30.2306L12.8593 30.5185L12.5712 30.8065L12.543 37.6318C12.5223 42.6376 12.5469 44.5348 12.6357 44.7486C12.8964 45.377 11.9824 45.3417 28.0098 45.3417C39.161 45.3417 42.744 45.312 42.9513 45.2176C43.5406 44.9495 43.5205 45.2887 43.5205 35.5911C43.5205 30.0413 43.4822 26.5602 43.4191 26.3948C43.3634 26.2482 43.1643 26.035 42.977 25.921C42.6677 25.7328 42.4517 25.7136 40.6337 25.7132L38.6311 25.7128V25.1115C38.6311 22.9156 37.086 20.9235 34.9379 20.3498C34.3565 20.1945 33.1682 20.1807 32.5658 20.3223ZM34.645 22.4233C35.7358 22.8248 36.4406 23.7901 36.5274 25.0014L36.5784 25.7128H33.7555H30.9327L30.9338 25.0637C30.9353 24.0829 31.3138 23.3827 32.2062 22.7098C32.7291 22.3155 33.9594 22.1709 34.645 22.4233ZM22.5813 27.5354C23.414 27.9496 23.9626 28.8618 23.9626 29.8317V30.1787H21.5179H19.0731V29.656C19.0731 27.857 20.9488 26.7232 22.5813 27.5354ZM41.4399 35.5273V43.2645H35.9262H30.4126V37.1318C30.4126 30.3759 30.426 30.5199 29.776 30.2937C29.5861 30.2277 28.7208 30.1787 27.7443 30.1787H26.0432V28.9843V27.79H33.7416H41.4399V35.5273ZM16.9475 32.6452C17.0401 33.1729 17.2276 33.445 17.6066 33.6018C18.2416 33.8643 18.8849 33.4463 19.0056 32.6926L19.0756 32.2558H21.5191H23.9626V32.5725C23.9626 33.0268 24.2162 33.4526 24.575 33.601C25.2343 33.8737 25.9114 33.4408 26.0135 32.6814L26.0706 32.2558H27.2013H28.3319V37.7602V43.2645H21.4659H14.5998V37.7602V32.2558H15.7394H16.879L16.9475 32.6452ZM27.5111 50.3679C26.6093 50.8669 26.9866 52.3 28.0198 52.3C28.547 52.3 29.0602 51.7927 29.0602 51.2716C29.0602 50.4918 28.197 49.9883 27.5111 50.3679Z" fill="#4772DA"/>
</svg>
