<svg width="57" height="57" viewBox="0 0 57 57" fill="none" xmlns="http://www.w3.org/2000/svg">
    <path fill-rule="evenodd" clip-rule="evenodd" d="M2.59765 7.64324C2.09273 7.92331 2.07413 8.05898 2.07018 11.4844C2.06779 13.6476 2.10427 14.7643 2.18263 14.9176C2.58258 15.7003 3.6292 15.7003 4.02914 14.9176C4.10532 14.7684 4.14524 13.812 4.14524 12.1346V9.57878H9.80968H15.4741V15.2049V20.831L15.7779 21.1351C16.0083 21.3657 16.1783 21.4392 16.481 21.4392C16.8267 21.4392 17.1331 21.2581 18.7662 20.0883L20.6522 18.7373L22.5399 20.0883C24.088 21.1961 24.4926 21.4392 24.7875 21.4392C25.2517 21.4392 25.6153 21.1964 25.7559 20.7926C25.8301 20.5796 25.8676 18.6408 25.8676 15.0253V9.57878H31.636H37.4044V23.7281V37.8773H20.7748H4.14524V30.7003V23.5233L3.84403 23.1859C3.5948 22.9067 3.46758 22.8484 3.10589 22.8484C2.74419 22.8484 2.61698 22.9067 2.36774 23.1859L2.06654 23.5233V33.8266C2.06654 45.0192 2.04263 44.5574 2.63527 44.8277C2.82173 44.9127 3.67389 44.952 5.33238 44.952H7.75687L7.99217 45.6844C9.13088 49.2292 13.482 50.6446 16.5284 48.4609C17.4827 47.7769 18.2499 46.7458 18.5882 45.6925L18.8261 44.952H28.1542H37.4822L37.7175 45.6844C38.8562 49.2292 43.2074 50.6446 46.2538 48.4609C47.208 47.7769 47.9753 46.7458 48.3136 45.6925L48.5515 44.952H51.5057C54.7402 44.952 54.9318 44.9207 55.1662 44.3545C55.2571 44.1347 55.2807 41.9353 55.2587 35.7404L55.2292 27.4214L54.9414 26.607C54.2274 24.5864 52.6466 23.0203 50.6561 22.3612C49.9407 22.1243 49.8414 22.1197 44.7058 22.0865L39.4831 22.0528V15.1965C39.4831 10.1023 39.4512 8.26997 39.3589 8.0673C39.0838 7.46284 40.2311 7.49769 20.754 7.50164C6.08902 7.50466 2.80105 7.53036 2.59765 7.64324ZM23.7889 13.9484C23.7889 16.3517 23.7538 18.3166 23.711 18.3149C23.6681 18.3132 23.0486 17.8918 22.3343 17.3786C20.6259 16.151 20.692 16.1509 18.9617 17.3817C18.2376 17.8967 17.6244 18.318 17.5991 18.318C17.5736 18.318 17.5528 16.3517 17.5528 13.9484V9.57878H20.6709H23.7889V13.9484ZM2.73048 18.208C2.41857 18.3398 2.06654 18.822 2.06654 19.1176C2.06654 19.681 2.56023 20.1907 3.10589 20.1907C3.65674 20.1907 4.14524 19.6805 4.14524 19.1051C4.14524 18.5223 3.28216 17.975 2.73048 18.208ZM50.2923 24.4296C51.4501 24.9022 52.4584 25.9141 52.9106 27.0573C53.104 27.5463 53.1432 27.8904 53.18 29.4242L53.223 31.2189H48.6512H44.0792L44.0408 30.1004C44.0077 29.1355 43.9629 28.9012 43.7145 28.3931C43.3952 27.7402 42.8418 27.1851 42.1641 26.8373C41.6411 26.5689 40.4628 26.4576 39.8726 26.6208L39.4831 26.7284V25.4317V24.1351L44.6019 24.1656C49.6308 24.1957 49.7307 24.2003 50.2923 24.4296ZM41.3573 28.7757C41.8205 29.0154 41.9775 29.422 41.9775 30.3813V31.2189H40.7303H39.4831V30.3813C39.4831 29.4357 39.6379 29.022 40.082 28.7807C40.452 28.5798 40.9748 28.5777 41.3573 28.7757ZM8.62586 28.8672C7.92929 29.2536 7.95216 30.354 8.66349 30.6784C8.86159 30.7688 10.1827 30.8027 13.4994 30.8027C18.4018 30.8027 18.4837 30.7944 18.7559 30.2674C19.0341 29.7288 18.8412 29.077 18.3352 28.8463C17.9224 28.6579 8.96812 28.6772 8.62586 28.8672ZM8.62586 33.4449C7.92929 33.8313 7.95216 34.9317 8.66349 35.2561C8.86159 35.3465 10.1827 35.3804 13.4994 35.3804C18.4018 35.3804 18.4837 35.3721 18.7559 34.8451C19.0341 34.3065 18.8412 33.6547 18.3352 33.424C17.9224 33.2357 8.96812 33.2549 8.62586 33.4449ZM48.6293 35.1674C48.6293 36.394 48.6719 37.1289 48.7535 37.308C48.9825 37.8113 49.2813 37.8773 51.3264 37.8773H53.2025V40.3743V42.8712H50.8769H48.5515L48.3162 42.1388C47.3734 39.2038 44.1202 37.6083 41.1716 38.6348C40.7676 38.7753 40.2225 39.0354 39.9601 39.2127L39.4831 39.5349V36.4173V33.2996H44.0562H48.6293V35.1674ZM53.2025 34.5481V35.7966H51.9552H50.708V34.5481V33.2996H51.9552H53.2025V34.5481ZM9.01126 40.2803C8.43431 41.0518 8.18362 41.5108 7.98001 42.169L7.76269 42.8712H5.95401H4.14524V41.4147V39.9581H6.69871H9.25218L9.01126 40.2803ZM37.4044 41.4147V42.8712H28.1123H18.8203L18.6058 42.1642C18.4745 41.7318 18.1869 41.166 17.8654 40.7076L17.3396 39.9581H27.372H37.4044V41.4147ZM14.7815 40.7255C15.5127 41.0836 16.1188 41.6933 16.4843 42.438C16.7315 42.9422 16.7733 43.155 16.7733 43.9116C16.7733 44.6682 16.7315 44.881 16.4843 45.3852C16.1165 46.1347 15.5124 46.7395 14.7636 47.1076C14.26 47.3551 14.0473 47.3969 13.2915 47.3969C12.5417 47.3969 12.3215 47.3544 11.8357 47.1155C9.86082 46.1446 9.17287 43.7849 10.3476 42.0109C11.3388 40.5142 13.2304 39.9658 14.7815 40.7255ZM44.5069 40.7255C45.238 41.0836 45.8442 41.6933 46.2096 42.438C46.4569 42.9422 46.4987 43.155 46.4987 43.9116C46.4987 44.6682 46.4569 44.881 46.2096 45.3852C45.8419 46.1347 45.2377 46.7395 44.489 47.1076C43.9853 47.3551 43.7727 47.3969 43.0169 47.3969C42.2671 47.3969 42.0468 47.3544 41.561 47.1155C39.5862 46.1446 38.8982 43.7849 40.073 42.0109C41.0641 40.5142 42.9557 39.9658 44.5069 40.7255ZM12.7833 43.0165C11.8822 43.5164 12.2592 44.952 13.2915 44.952C13.8181 44.952 14.3308 44.4438 14.3308 43.9217C14.3308 43.1406 13.4685 42.6362 12.7833 43.0165ZM42.5086 43.0165C41.6076 43.5164 41.9846 44.952 43.0169 44.952C43.5435 44.952 44.0562 44.4438 44.0562 43.9217C44.0562 43.1406 43.1939 42.6362 42.5086 43.0165Z" fill="#4772DA"/>
</svg>
