<svg width="622" height="303" viewBox="0 0 622 303" fill="none" xmlns="http://www.w3.org/2000/svg">
    <path opacity="0.56" d="M193.891 166.018L209.463 196.458L209.974 208.225L230.269 229.201V240.712L292.175 260.281L193.891 166.018Z" fill="#7897CE"/>
    <path d="M226.95 134.042L202.953 41.1847L205.889 42.208L204.868 37.4756H211.25L226.95 134.042Z" fill="#7897CE"/>
    <path d="M19.0195 145.297L39.6976 172.412L45.3138 156.169L19.0195 145.297Z" fill="#7897CE"/>
    <path d="M199.504 217.178L236.775 207.074L225.543 196.458L199.504 217.178Z" fill="#7897CE"/>
    <path d="M334.55 302.233L246.605 231.375L243.541 220.887L221.587 199.527L218.141 190.19L334.55 302.233Z" fill="#7897CE"/>
    <path d="M88.7135 216.027L23.1055 217.178L31.1469 205.923L31.9128 204.899L174.744 206.178L95.8615 209.12L88.7135 216.027Z" fill="#7897CE"/>
    <path d="M218.141 190.19L199.505 203.748L11.4883 131.739L154.703 23.1504L212.525 44.51L227.203 135.96L193.123 156.169L193.889 166.017L218.141 190.19Z" fill="#7897CE"/>
    <path d="M193.635 165.378L186.487 172.924L162.746 162.82L149.343 132.891C149.216 132.635 148.96 132.379 148.45 132.123C148.067 131.995 147.556 131.867 147.173 131.867L101.35 136.472L77.3532 126.24L90.628 112.554L136.069 108.078C136.579 108.078 136.834 107.822 137.09 107.694C137.345 107.438 137.345 107.182 137.217 106.927L124.07 77.5091L137.217 63.5678L161.469 73.7999L174.617 103.09C174.744 103.345 174.999 103.601 175.51 103.857C175.893 103.985 176.404 104.113 176.786 104.113L220.951 99.6362C220.823 98.8688 220.951 98.1013 221.078 97.3339L177.425 101.683L164.66 73.0325C164.533 72.7767 164.278 72.5209 163.767 72.2651L137.473 61.1376C137.09 61.0097 136.579 60.8818 136.196 60.8818C135.813 60.8818 135.43 61.1376 135.175 61.2655L120.752 76.4859C120.496 76.7417 120.496 76.9975 120.624 77.2533L133.516 106.031L89.0963 110.38C88.7134 110.38 88.3305 110.636 88.0752 110.764L73.524 126.112C73.2687 126.368 73.2687 126.623 73.3963 126.879C73.524 127.135 73.7793 127.391 74.1622 127.519L100.329 138.646C100.712 138.774 101.222 138.902 101.605 138.902L146.408 134.298L159.555 163.459C159.682 163.715 159.938 163.971 160.321 164.099L186.36 175.226C186.743 175.354 187.253 175.482 187.636 175.482C188.019 175.482 188.402 175.226 188.657 175.098L195.933 167.424C195.295 166.785 194.401 166.529 194.018 165.634C194.018 165.506 193.763 165.378 193.635 165.378Z" fill="#4A6CB2"/>
    <path d="M226.566 126.624C226.311 125.984 226.311 125.217 226.183 124.449L187.635 128.286C187.252 128.286 186.869 128.542 186.614 128.67C186.359 128.926 186.359 129.182 186.486 129.437L197.591 154.25C198.102 153.867 198.612 153.739 199.123 153.355C199.506 153.099 199.889 152.716 200.272 152.588L190.188 130.205L226.566 126.624Z" fill="#4A6CB2"/>
    <path d="M188.148 129.31L189.808 129.182L188.148 129.31Z" fill="#4A6CB2"/>
    <path d="M115.519 147.855L122.794 163.46L147.046 160.774L139.771 145.17L115.519 147.855ZM150.748 162.308C150.493 162.564 150.11 162.692 149.727 162.82L122.156 165.89C121.262 166.018 120.241 165.634 119.986 164.994L111.689 147.216C111.562 146.96 111.562 146.704 111.817 146.449C112.072 146.193 112.328 146.065 112.838 146.065L140.409 142.995C141.302 142.867 142.323 143.251 142.579 143.891L150.875 161.669C151.003 161.797 151.003 162.053 150.748 162.308Z" fill="#4A6CB2"/>
    <path d="M210.992 146.448L206.653 137.111L230.905 134.426H231.16C231.671 133.402 232.564 133.274 233.457 132.635C233.33 132.507 233.202 132.379 232.947 132.379C232.564 132.251 232.053 132.123 231.67 132.251L204.1 135.321C203.717 135.321 203.334 135.577 203.079 135.832C202.823 136.088 202.823 136.344 202.951 136.6L208.184 147.855C208.95 147.088 209.971 146.704 210.992 146.448Z" fill="#4A6CB2"/>
    <path d="M178.953 71.7529L186.229 87.357L210.481 84.671L203.205 69.067L178.953 71.7529ZM214.183 86.078C213.927 86.3338 213.672 86.4617 213.162 86.4617L185.591 89.5313C185.208 89.5313 184.697 89.5313 184.314 89.4034C183.931 89.2755 183.676 89.0197 183.549 88.7639L175.252 70.9855C175.124 70.7297 175.124 70.346 175.379 70.2181C175.635 69.9623 176.018 69.8344 176.401 69.8344L203.971 66.7647C204.865 66.6368 205.886 67.0205 206.141 67.6601L214.438 85.4384C214.438 85.5663 214.438 85.9501 214.183 86.078Z" fill="#4A6CB2"/>
    <path d="M85.6475 83.5204L92.9231 99.1244L117.175 96.4385L109.899 80.8344L85.6475 83.5204ZM120.877 97.8454C120.621 98.1012 120.366 98.2291 119.856 98.2291L92.2849 101.299C91.3914 101.427 90.3702 101.043 90.115 100.403L81.8182 82.6251C81.6906 82.3693 81.6906 81.9856 81.9459 81.8577C82.2011 81.6018 82.5841 81.4739 82.967 81.4739L110.538 78.4043C110.921 78.4043 111.431 78.4043 111.814 78.6601C112.197 78.788 112.58 79.0438 112.708 79.2996L121.004 97.078C121.132 97.3338 121.132 97.5896 120.877 97.8454Z" fill="#4A6CB2"/>
    <path d="M137.855 108.589L149.342 132.379L186.359 128.414L175.126 104.369L137.855 108.589ZM190.06 129.821C189.805 130.077 189.422 130.205 189.039 130.205L148.704 134.554C147.811 134.681 146.917 134.298 146.534 133.658L134.025 107.822C133.898 107.566 133.898 107.182 134.153 107.055C134.408 106.799 134.791 106.671 135.174 106.543L175.892 101.938C176.275 101.938 176.785 101.938 177.168 102.066C177.551 102.194 177.806 102.45 177.934 102.706L190.188 128.798C190.315 129.31 190.315 129.693 190.06 129.821Z" fill="#4A6CB2"/>
    <path d="M160.448 115.368L158.788 117.159L154.321 115.368C153.427 114.985 153.172 114.345 153.555 113.833C153.938 113.322 155.087 113.194 155.853 113.578L160.448 115.368ZM170.404 120.612C169.893 121.124 168.872 121.252 168.106 120.868L161.98 118.31L163.639 116.519L169.766 119.077C170.532 119.461 170.787 120.101 170.404 120.612Z" fill="#4A6CB2"/>
    <path d="M166.319 113.449L163.511 116.519L161.851 118.31L158.915 121.379C158.405 121.891 157.384 122.019 156.618 121.635C155.724 121.251 155.469 120.612 155.852 120.1L158.788 117.031L160.447 115.24L163.255 112.17C163.766 111.659 164.787 111.531 165.553 111.915C166.446 112.298 166.829 113.066 166.319 113.449Z" fill="#4A6CB2"/>
    <path opacity="0.56" d="M353.316 62.2881L193.125 156.168L335.829 291.105L497.041 199.527L353.316 62.2881Z" fill="#7897CE"/>
    <path d="M192.742 164.994V156.169L335.829 291.106V302.233L192.742 164.994Z" stroke="#4B6CB2" stroke-width="1.33" stroke-miterlimit="10" stroke-linecap="round" stroke-linejoin="round"/>
    <path d="M353.316 62.2881L192.742 156.168L335.829 291.105L497.041 199.527L353.316 62.2881Z" stroke="#4B6CB2" stroke-width="1.33" stroke-miterlimit="10" stroke-linecap="round" stroke-linejoin="round"/>
    <path d="M497.04 208.48L335.828 302.233V291.105L497.04 199.527V208.48Z" stroke="#4B6CB2" stroke-width="1.33" stroke-miterlimit="10" stroke-linecap="round" stroke-linejoin="round"/>
    <path d="M438.453 143.506L406.032 20.7203L212.399 0.895508L233.715 132.251L227.205 135.96L206.91 11.2556L212.399 0.895508" stroke="#4B6CB2" stroke-width="1.33" stroke-miterlimit="10" stroke-linecap="round" stroke-linejoin="round"/>
    <path d="M218.651 189.807L199.505 203.748L11.4883 131.739L154.703 23.1504L212.397 44.6379" stroke="#4B6CB2" stroke-width="1.33" stroke-miterlimit="10" stroke-linecap="round" stroke-linejoin="round"/>
    <path d="M225.543 196.458L199.759 216.027L199.504 203.748" stroke="#4B6CB2" stroke-width="1.33" stroke-miterlimit="10" stroke-linecap="round" stroke-linejoin="round"/>
    <path d="M11.4883 131.739V142.355L199.76 216.027" stroke="#4B6CB2" stroke-width="1.33" stroke-miterlimit="10" stroke-linecap="round" stroke-linejoin="round"/>
    <path d="M211.25 37.9873H194.656" stroke="#4B6CB2" stroke-width="1.33" stroke-miterlimit="10" stroke-linecap="round" stroke-linejoin="round"/>
    <path d="M135.045 37.9873H89.4766L71.7344 85.9506" stroke="#4B6CB2" stroke-width="1.33" stroke-miterlimit="10" stroke-linecap="round" stroke-linejoin="round"/>
    <path d="M45.3126 156.169L31.9102 194.923L143.469 194.028" stroke="#4B6CB2" stroke-width="1.33" stroke-miterlimit="10" stroke-linecap="round" stroke-linejoin="round"/>
    <path d="M235.754 206.179L212.523 206.307" stroke="#4B6CB2" stroke-width="1.33" stroke-miterlimit="10" stroke-linecap="round" stroke-linejoin="round"/>
    <path d="M174.742 206.178L31.9102 206.306V194.923" stroke="#4B6CB2" stroke-width="1.33" stroke-miterlimit="10" stroke-linecap="round" stroke-linejoin="round"/>
    <path d="M16.9774 144.529L0.894531 154.378L38.6766 175.609" stroke="#4B6CB2" stroke-width="1.33" stroke-miterlimit="10" stroke-linecap="round" stroke-linejoin="round"/>
    <path d="M248.648 218.585L181.764 258.874L91.6484 206.179" stroke="#4B6CB2" stroke-width="1.33" stroke-miterlimit="10" stroke-linecap="round" stroke-linejoin="round"/>
    <path d="M0.894531 154.378V165.378L34.975 185.97" stroke="#4B6CB2" stroke-width="1.33" stroke-miterlimit="10" stroke-linecap="round" stroke-linejoin="round"/>
    <path d="M71.7344 206.307L181.89 269.234L255.922 225.492" stroke="#4B6CB2" stroke-width="1.33" stroke-miterlimit="10" stroke-linecap="round" stroke-linejoin="round"/>
    <path d="M181.762 258.874L181.89 269.234" stroke="#4B6CB2" stroke-width="1.33" stroke-miterlimit="10" stroke-linecap="round" stroke-linejoin="round"/>
    <path d="M433.348 277.036V281.64C433.475 282.663 434.114 283.687 435.262 284.07H435.39C446.622 288.547 458.876 289.442 470.619 286.628L588.688 258.746C590.092 258.362 590.092 257.083 590.347 255.932L590.475 252.095" fill="#7990B7"/>
    <path d="M433.348 277.036V281.64C433.475 282.663 434.114 283.687 435.262 284.07H435.39C446.622 288.547 458.876 289.442 470.619 286.628L588.688 258.746C590.092 258.362 590.092 257.083 590.347 255.932L590.475 252.095" stroke="#4B6CB2" stroke-width="1.33" stroke-miterlimit="10" stroke-linecap="round" stroke-linejoin="round"/>
    <path d="M558.436 167.296C558.947 166.145 560.606 160.133 562.648 153.099C567.499 135.832 576.944 120.228 589.709 107.694C594.176 101.938 600.431 97.8451 607.451 96.0545C612.812 94.6475 618.428 97.7172 619.96 103.089C621.492 108.205 621.364 113.577 619.832 118.693L614.599 134.937C611.791 143.89 607.578 152.331 602.345 160.006L586.262 183.412L558.309 168.447V167.296H558.436Z" fill="white" stroke="#4B6CB2" stroke-width="1.33" stroke-miterlimit="10" stroke-linecap="round" stroke-linejoin="round"/>
    <path d="M547.332 187.888L558.309 167.296C558.437 167.168 558.565 167.04 558.692 167.04C569.669 167.68 579.626 173.307 586.008 182.388L586.263 182.772C586.391 182.9 586.391 183.028 586.263 183.156L575.286 201.957L547.332 187.888Z" fill="white" stroke="#4B6CB2" stroke-width="1.33" stroke-miterlimit="10" stroke-linecap="round" stroke-linejoin="round"/>
    <path d="M495.891 228.05L434.495 274.35C432.581 275.757 432.964 278.699 435.261 279.594H435.389C446.621 284.071 458.875 284.966 470.618 282.152L588.687 254.27C590.857 253.758 590.985 250.688 588.942 249.921L515.676 224.852C509.038 222.55 501.508 223.701 495.891 228.05Z" fill="white" stroke="#4B6CB2" stroke-width="1.33" stroke-miterlimit="10" stroke-linecap="round" stroke-linejoin="round"/>
    <path d="M575.37 202.047C576.356 200.093 570.883 195.33 563.145 191.409C555.407 187.488 548.334 185.893 547.348 187.847C546.362 189.802 551.835 194.564 559.573 198.486C567.311 202.407 574.383 204.001 575.37 202.047Z" fill="white" stroke="#4B6CB2" stroke-width="1.33" stroke-miterlimit="10" stroke-linecap="round" stroke-linejoin="round"/>
    <path d="M535.331 221.526L526.906 243.397C529.842 246.339 533.927 247.618 538.011 246.979L541.075 246.467C544.266 245.956 546.436 243.142 546.053 239.944L550.137 226.387C550.648 224.852 549.754 223.317 548.223 222.933L538.522 219.991C537.373 219.48 535.841 220.119 535.331 221.526Z" fill="white" stroke="#4B6CB2" stroke-width="1.33" stroke-miterlimit="10" stroke-linecap="round" stroke-linejoin="round"/>
    <path d="M539.289 219.608L542.352 212.574C543.629 209.632 545.671 207.074 548.352 205.283L551.287 203.237C552.947 202.086 554.096 200.423 554.606 198.505L555.372 195.435C555.627 194.156 557.031 193.644 558.18 194.156L563.158 196.586C564.052 196.97 564.435 197.993 564.179 198.888L563.796 200.423C562.648 204.26 560.478 207.586 557.414 210.272L554.861 212.446C553.33 213.853 552.053 215.516 551.16 217.306L548.862 222.422L539.289 219.608Z" fill="white" stroke="#4B6CB2" stroke-width="1.33" stroke-miterlimit="10" stroke-linecap="round" stroke-linejoin="round"/>
    <path opacity="0.56" d="M619.959 102.961C618.427 97.5893 612.811 94.5196 607.45 95.9265C604.259 96.6939 601.323 98.1009 598.642 99.7636C598.77 99.7636 598.77 99.7636 598.898 99.6357C604.259 98.2288 609.875 101.298 611.407 106.67C612.938 111.786 612.811 117.158 611.279 122.274L606.046 138.518C603.237 147.471 599.025 155.913 593.792 163.587L571.199 196.33L575.922 201.062L602.344 159.878C607.705 152.203 611.789 143.634 614.598 134.809L619.831 118.565C621.49 113.449 621.49 108.077 619.959 102.961Z" fill="#7897CE"/>
    <path opacity="0.56" d="M563.287 196.714L561.372 195.818C561.5 196.202 561.628 196.714 561.5 197.097L561.117 198.632C559.968 202.469 557.798 205.795 554.735 208.481L552.182 210.655C550.65 212.062 549.374 213.725 548.481 215.515L546.183 220.631L539.801 218.713L539.418 219.608L548.991 222.55L551.289 217.434C552.182 215.515 553.459 213.853 554.99 212.574L557.543 210.399C560.607 207.841 562.776 204.388 563.925 200.551L564.308 199.016C564.563 198.121 564.053 197.097 563.287 196.714Z" fill="#7897CE"/>
</svg>
