<svg width="24" height="24" viewBox="0 0 24 24" fill="none" xmlns="http://www.w3.org/2000/svg">
    <path fill-rule="evenodd" clip-rule="evenodd" d="M11.3704 0.0664826C7.49557 0.544466 4.29657 3.33474 3.30062 7.10517C2.58189 9.82621 3.17045 12.8244 4.8678 15.0887C5.41901 15.8239 6.11891 16.5227 6.83736 17.0548L7.17881 17.3078V20.4183V23.5288L7.28571 23.6882C7.43006 23.9034 7.6703 24.0223 7.9088 23.9965C8.01815 23.9847 9.02079 23.5615 10.2989 22.9878L12.5007 21.9994L14.7024 22.9878C15.9806 23.5615 16.9832 23.9847 17.0926 23.9965C17.3311 24.0223 17.5713 23.9034 17.7156 23.6882L17.8225 23.5288V20.4183V17.3078L18.164 17.0542C21.5687 14.5259 22.8802 10.0978 21.3939 6.14911C20.0013 2.4495 16.3741 -0.0358218 12.4201 0.000390524C12.1147 0.00320495 11.6423 0.032944 11.3704 0.0664826ZM13.6781 1.47515C15.2867 1.73478 16.6564 2.36681 17.8356 3.39365C21.3438 6.44833 21.543 11.8281 18.27 15.1211C17.0637 16.3347 15.633 17.089 13.89 17.4301C13.2912 17.5473 11.7101 17.5473 11.1113 17.4301C9.3684 17.089 7.93767 16.3347 6.73139 15.1211C4.523 12.8993 3.81651 9.6428 4.89747 6.66847C5.77416 4.25632 7.93074 2.3025 10.4284 1.65752C11.4226 1.40076 12.7543 1.32603 13.6781 1.47515ZM12.1865 3.31597C11.9912 3.42081 11.9753 3.44295 11.1605 4.74575C10.777 5.35901 10.4485 5.86983 10.4306 5.88085C10.4126 5.89188 9.75313 5.92494 8.96502 5.95431C7.40727 6.01238 7.3111 6.02997 7.1245 6.29096C7.06978 6.36751 7.01491 6.51921 7.00257 6.62804C6.97705 6.85385 7.00026 6.90474 7.84757 8.47955L8.36615 9.44335L8.23823 9.70322C8.16792 9.84614 7.86603 10.4169 7.56735 10.9716C6.96019 12.0993 6.91328 12.2528 7.08344 12.5543C7.27517 12.8941 7.33969 12.9106 8.63879 12.9532C9.27341 12.9741 9.941 13.0024 10.1223 13.0162L10.452 13.0414L11.1584 14.1738C11.547 14.7967 11.9251 15.3755 11.9987 15.4602C12.2624 15.7635 12.7389 15.7635 13.0027 15.4602C13.0762 15.3755 13.4544 14.7967 13.8429 14.1738L14.5494 13.0414L14.879 13.0162C15.0604 13.0024 15.7279 12.9741 16.3626 12.9532C17.6617 12.9106 17.7262 12.8941 17.9179 12.5543C18.0881 12.2528 18.0412 12.0993 17.434 10.9716C17.1353 10.4169 16.8334 9.84614 16.7631 9.70322L16.6352 9.44335L17.1538 8.47955C18.0011 6.90474 18.0243 6.85385 17.9988 6.62804C17.9864 6.51921 17.9316 6.36751 17.8769 6.29096C17.6902 6.02983 17.5945 6.01238 16.0329 5.95445C15.0371 5.91753 14.58 5.8839 14.5427 5.84478C14.5131 5.81373 14.2188 5.35563 13.8887 4.82676C13.5586 4.29788 13.218 3.75863 13.1318 3.62842C12.8868 3.25814 12.5201 3.13693 12.1865 3.31597ZM13.06 6.11576C13.5894 6.96891 13.697 7.10968 13.8992 7.21339C13.9589 7.24407 14.4509 7.28337 15.0662 7.30669C15.6513 7.32888 16.1379 7.35514 16.1476 7.36509C16.1574 7.37503 15.9395 7.80536 15.6635 8.32133C15.2383 9.11613 15.1617 9.29175 15.1622 9.47056C15.1626 9.64862 15.2417 9.82841 15.667 10.6198C15.9698 11.1831 16.1483 11.5626 16.1138 11.5697C16.0822 11.5762 15.5879 11.599 15.0152 11.6204C14.0782 11.6554 13.9579 11.6692 13.8133 11.7582C13.6968 11.8299 13.4993 12.1024 13.0936 12.7512C12.7861 13.2429 12.5193 13.6453 12.5007 13.6453C12.4821 13.6453 12.2152 13.2429 11.9077 12.7512C11.502 12.1024 11.3045 11.8299 11.188 11.7582C11.0435 11.6692 10.9231 11.6554 9.98616 11.6204C9.41347 11.599 8.91911 11.5762 8.88755 11.5697C8.85308 11.5626 9.03157 11.1831 9.33435 10.6198C9.75968 9.82841 9.83871 9.64862 9.83918 9.47056C9.83965 9.29175 9.76307 9.11613 9.33788 8.32133C9.0619 7.80536 8.84399 7.37503 8.85374 7.36509C8.86344 7.35514 9.35008 7.32888 9.93511 7.30669C10.5505 7.28337 11.0424 7.24407 11.1022 7.21339C11.3043 7.10968 11.412 6.96891 11.9413 6.11576C12.236 5.64083 12.4877 5.2522 12.5007 5.2522C12.5136 5.2522 12.7653 5.64083 13.06 6.11576ZM8.8802 18.2129C9.65244 18.5527 10.8039 18.8218 11.8251 18.901C13.2262 19.0097 14.931 18.7366 16.1212 18.2129C16.2604 18.1516 16.3928 18.1015 16.4155 18.1015C16.4385 18.1015 16.4568 19.0162 16.4568 20.1654C16.4568 21.3005 16.4455 22.2293 16.4318 22.2293C16.418 22.2293 15.5756 21.8558 14.5597 21.3994C13.0468 20.7196 12.6743 20.5695 12.5007 20.5695C12.3271 20.5695 11.9546 20.7196 10.4416 21.3994C9.42577 21.8558 8.58331 22.2293 8.56956 22.2293C8.55585 22.2293 8.5446 21.3005 8.5446 20.1654C8.5446 19.0162 8.56287 18.1015 8.58585 18.1015C8.60851 18.1015 8.74099 18.1516 8.8802 18.2129Z" fill="#B7A0CF"/>
</svg>
