<svg width="24" height="24" viewBox="0 0 24 24" fill="none" xmlns="http://www.w3.org/2000/svg">
    <path d="M4.70869 18.3043C4.82387 18.3043 4.91724 18.2116 4.91724 18.0972C4.91724 17.9828 4.82387 17.89 4.70869 17.89C4.59351 17.89 4.50013 17.9828 4.50013 18.0972C4.50013 18.2116 4.59351 18.3043 4.70869 18.3043Z" fill="#4772DA"/>
    <path d="M21.1845 13.8511C21.0802 13.644 20.7674 13.5404 20.5588 13.5404C20.3503 13.5404 20.0375 13.644 19.9332 13.8511C18.9947 15.5081 17.1177 18.7185 17.1177 20.0648C17.1177 21.929 18.6819 23.4824 20.5588 23.4824C22.4358 23.4824 24 21.929 24 20.0648C24 18.7185 22.2273 15.5081 21.1845 13.8511ZM20.5588 22.1361C19.4118 22.1361 18.5776 21.204 18.5776 20.1684C18.5776 19.7542 18.9947 18.5114 20.4546 15.9224C20.5588 15.8188 20.6631 15.8188 20.7674 15.9224C22.2273 18.5114 22.6444 19.8577 22.6444 20.1684C22.6444 21.204 21.7059 22.1361 20.5588 22.1361Z" fill="#4772DA"/>
    <path d="M12.0081 1.21659C6.79424 1.52727 2.8317 6.08399 2.8317 11.2621V14.4725C1.58037 15.1974 0.746148 16.4402 0.746148 17.9936C0.746148 18.9257 1.05898 19.7542 1.58037 20.4791C0.746148 21.204 0.224761 22.1361 0.0162065 23.1717C-0.0880708 23.5859 0.329039 24.0002 0.746148 24.0002H8.77551C9.19261 24.0002 9.60972 23.5859 9.50545 23.1717C9.29689 22.0325 8.7755 21.1005 7.94129 20.4791C8.46267 19.7542 8.77551 18.9257 8.77551 17.9936C8.77551 16.5437 7.94129 15.1974 6.79423 14.5761C6.79423 14.5761 6.79423 14.5761 6.79423 14.4725V11.055C6.79423 8.05167 8.98406 5.35906 12.0081 5.04838C15.4493 4.63413 18.369 7.22317 18.5776 10.5372C18.5776 10.5372 18.5776 10.5372 18.5776 10.6407V10.7443L18.6819 10.8478C18.7861 10.9514 18.8904 11.055 19.099 11.055H21.9145C22.2273 11.055 22.4358 10.8478 22.4358 10.5372C22.123 5.04837 17.5348 0.905901 12.0081 1.21659ZM7.83701 22.7575H1.68464C1.8932 22.3432 2.10175 22.0325 2.41459 21.7218C3.14453 22.0325 3.97875 22.2396 4.81296 22.2396C5.64718 22.2396 6.4814 22.0325 7.21134 21.7218C7.4199 22.0325 7.62845 22.3432 7.83701 22.7575ZM7.31562 18.0972C7.31562 19.547 6.16857 20.6862 4.70869 20.6862C3.24881 20.6862 2.10175 19.547 2.10175 18.0972C2.10175 16.6473 3.24881 15.5081 4.70869 15.5081C6.16857 15.5081 7.31562 16.6473 7.31562 18.0972ZM19.8289 9.6051C19.2032 6.18756 16.2835 3.59851 12.6338 3.59851C8.56695 3.59851 5.33435 6.80893 5.33435 10.8478V13.8511C5.1258 13.8511 4.91724 13.8511 4.70869 13.8511C4.50013 13.8511 4.39586 13.8511 4.1873 13.8511V10.9514C4.1873 6.39468 7.94129 2.56289 12.6338 2.56289C16.8049 2.56289 20.3503 5.56618 20.976 9.6051H19.8289Z" fill="#4772DA"/>
    <path d="M5.75146 18.0972L6.16857 17.6829C6.4814 17.3722 6.4814 16.958 6.16857 16.7509C5.85574 16.5437 5.43863 16.4402 5.23007 16.7509L4.81297 17.1651L4.29158 16.7509C3.97875 16.4402 3.56164 16.4402 3.35308 16.7509C3.14453 17.0616 3.04025 17.4758 3.35308 17.6829L3.77019 18.0972L3.35308 18.5114C3.04025 18.8221 3.04025 19.2363 3.35308 19.4435C3.45736 19.547 3.66591 19.6506 3.87447 19.6506C4.08302 19.6506 4.1873 19.547 4.39586 19.4435L4.81297 19.0292L5.23007 19.4435C5.33435 19.547 5.54291 19.6506 5.75146 19.6506C5.96002 19.6506 6.06429 19.547 6.27285 19.4435C6.58568 19.1328 6.58568 18.7185 6.27285 18.5114L5.75146 18.0972Z" fill="#4772DA"/>
</svg>
