<svg width="24" height="24" viewBox="0 0 24 24" fill="none" xmlns="http://www.w3.org/2000/svg">
    <path fill-rule="evenodd" clip-rule="evenodd" d="M1.33348 1.08715C1.2353 1.13902 1.13922 1.23785 1.08641 1.34137C1.00056 1.50974 1 1.57643 1 11.9993C1 22.4263 1.00052 22.4888 1.0865 22.6573C1.14218 22.7665 1.23345 22.8578 1.34263 22.9135C1.5112 22.9995 1.57363 23 12 23C22.4264 23 22.4888 22.9995 22.6574 22.9135C22.7666 22.8578 22.8578 22.7665 22.9135 22.6573C22.9995 22.4888 23 22.4263 23 11.9993C23 1.57222 22.9995 1.50978 22.9135 1.3412C22.8578 1.23201 22.7666 1.14074 22.6574 1.08505C22.4888 0.999018 22.4283 0.998545 11.991 1.00044C1.62494 1.00233 1.49212 1.0034 1.33348 1.08715ZM4.60938 3.44793V4.60816H3.44922H2.28906V3.44793V2.28769H3.44922H4.60938V3.44793ZM11.3555 4.01983V5.75198L10.8076 6.26837C10.5063 6.55232 10.1881 6.84732 10.1005 6.9239L9.94128 7.06313L8.77442 7.10219C7.50418 7.14469 7.44974 7.15586 7.25745 7.41386C7.1499 7.55816 7.1111 7.90958 7.09997 8.84086C7.09572 9.19538 7.07982 9.59789 7.06465 9.73531L7.03711 9.98519L6.39576 10.6699L5.75436 11.3547H4.02173H2.28906V8.626V5.89731H3.83766C5.30491 5.89731 5.39514 5.89275 5.5558 5.8108C5.66499 5.75511 5.75625 5.66384 5.81194 5.55465C5.89388 5.39398 5.89844 5.30374 5.89844 3.83639V2.28769H8.62695H11.3555V4.01983ZM18.1016 3.83639C18.1016 5.30374 18.1061 5.39398 18.1881 5.55465C18.2437 5.66384 18.335 5.75511 18.4442 5.8108C18.6049 5.89275 18.6951 5.89731 20.1623 5.89731H21.7109V8.626V11.3547H19.9804H18.2498L17.7321 10.8068C17.4474 10.5055 17.1517 10.1872 17.0751 10.0997L16.9358 9.94042L16.8968 8.77348C16.8543 7.50316 16.8431 7.44871 16.5851 7.25641C16.4408 7.14885 16.0894 7.11005 15.1582 7.09892C14.8037 7.09467 14.4022 7.07877 14.2659 7.0636L14.0182 7.03605L13.3313 6.3953L12.6445 5.75455V4.02112V2.28769H15.373H18.1016V3.83639ZM21.7109 3.44793V4.60816H20.5508H19.3906V3.44793V2.28769H20.5508H21.7109V3.44793ZM12.709 7.58025C13.0871 7.93717 13.456 8.25447 13.5287 8.28541C13.6159 8.32245 13.9909 8.35197 14.6288 8.372L15.5967 8.40234L15.627 9.37027C15.6471 10.0105 15.6765 10.383 15.7138 10.4705C15.7449 10.5432 16.0579 10.9093 16.4095 11.284C16.7612 11.6587 17.0488 11.9806 17.0488 11.9993C17.0488 12.018 16.7612 12.3398 16.4095 12.7145C16.0579 13.0892 15.7449 13.4554 15.7138 13.5281C15.6765 13.6156 15.6471 13.988 15.627 14.6283L15.5967 15.5962L14.6288 15.6265C13.9886 15.6466 13.6162 15.676 13.5287 15.7133C13.456 15.7444 13.0899 16.0575 12.7152 16.4091C12.3405 16.7607 12.0183 17.0484 11.9991 17.0484C11.9799 17.0484 11.658 16.7604 11.2838 16.4082C10.9097 16.0561 10.544 15.743 10.4713 15.7124C10.3852 15.6763 10.0009 15.6463 9.37117 15.6265L8.4033 15.5962L8.37296 14.6283C8.3529 13.988 8.32351 13.6156 8.28617 13.5281C8.25514 13.4554 7.94207 13.0892 7.59046 12.7145C7.23885 12.3398 6.95117 12.018 6.95117 11.9993C6.95117 11.9806 7.23885 11.6587 7.59046 11.284C7.94207 10.9093 8.25514 10.5432 8.28617 10.4705C8.32351 10.383 8.3529 10.0105 8.37296 9.37027L8.4033 8.40234L9.37117 8.372C9.99877 8.35232 10.3855 8.32215 10.4713 8.28627C10.544 8.2558 10.9129 7.93833 11.291 7.5808C11.6691 7.22328 11.9882 6.9309 12 6.93107C12.0118 6.93125 12.3309 7.22337 12.709 7.58025ZM11.4054 9.76612C10.8179 9.92005 10.2829 10.3275 9.98833 10.8454C9.82097 11.1396 9.67969 11.6677 9.67969 11.9993C9.67969 12.3305 9.82105 12.8593 9.98722 13.1498C10.1624 13.4559 10.5434 13.837 10.8496 14.0122C11.14 14.1784 11.6688 14.3197 12 14.3197C12.3312 14.3197 12.86 14.1784 13.1504 14.0122C13.4566 13.837 13.8376 13.4559 14.0128 13.1498C14.1789 12.8593 14.3203 12.3305 14.3203 11.9993C14.3203 11.668 14.1789 11.1392 14.0128 10.8488C13.8376 10.5426 13.4566 10.1615 13.1504 9.98635C12.8517 9.81541 12.326 9.67808 11.9824 9.68117C11.8385 9.68246 11.5788 9.7207 11.4054 9.76612ZM12.3173 11.0202C12.6866 11.1293 13.0312 11.602 13.0312 11.9993C13.0312 12.5317 12.5324 13.0306 12 13.0306C11.4676 13.0306 10.9688 12.5317 10.9688 11.9993C10.9688 11.7292 11.0671 11.5113 11.2896 11.2883C11.591 10.9862 11.9157 10.9015 12.3173 11.0202ZM6.39576 13.3286L7.03711 14.0134L7.06465 14.2632C7.07982 14.4007 7.09572 14.8032 7.09997 15.1577C7.1111 16.089 7.1499 16.4404 7.25745 16.5847C7.44974 16.8427 7.50418 16.8539 8.77442 16.8964L9.94128 16.9354L10.1005 17.0746C10.1881 17.1512 10.5063 17.4462 10.8076 17.7302L11.3555 18.2466V19.9787V21.7109H8.62695H5.89844V20.1622C5.89844 18.6948 5.89388 18.6046 5.81194 18.4439C5.75625 18.3347 5.66499 18.2434 5.5558 18.1877C5.39514 18.1058 5.30491 18.1012 3.83766 18.1012H2.28906V15.3725V12.6438H4.02173H5.75436L6.39576 13.3286ZM21.7109 15.3725V18.1012H20.1623C18.6951 18.1012 18.6049 18.1058 18.4442 18.1877C18.335 18.2434 18.2437 18.3347 18.1881 18.4439C18.1061 18.6046 18.1016 18.6948 18.1016 20.1622V21.7109H15.373H12.6445V19.9774V18.244L13.3313 17.6032L14.0182 16.9625L14.2659 16.9349C14.4022 16.9198 14.8037 16.9039 15.1582 16.8996C16.0894 16.8885 16.4408 16.8497 16.5851 16.7421C16.8431 16.5498 16.8543 16.4954 16.8968 15.2251L16.9358 14.0581L17.0751 13.8989C17.1517 13.8113 17.4474 13.4931 17.7321 13.1917L18.2498 12.6438H19.9804H21.7109V15.3725ZM4.60938 20.5506V21.7109H3.44922H2.28906V20.5506V19.3904H3.44922H4.60938V20.5506ZM21.7109 20.5506V21.7109H20.5508H19.3906V20.5506V19.3904H20.5508H21.7109V20.5506Z" fill="#6CBFCA"/>
</svg>
