<svg width="24" height="24" viewBox="0 0 24 24" fill="none" xmlns="http://www.w3.org/2000/svg">
    <path fill-rule="evenodd" clip-rule="evenodd" d="M2.75041 2.10056C2.60979 2.17421 2.53237 2.25488 2.46075 2.40223C2.40698 2.51285 2.05191 3.90056 1.67166 5.48603C1.00005 8.28648 0.981035 8.37841 1.00637 8.7086C1.04134 9.16425 1.17726 9.68465 1.3602 10.0634C1.56241 10.4821 1.63721 10.5878 2.02859 11.008L2.36384 11.3681L2.37511 16.4685C2.38638 21.541 2.3869 21.5696 2.47512 21.6923C2.5239 21.7602 2.61724 21.8572 2.68257 21.9078C2.80039 21.9992 2.83157 22 6.49424 22C10.1569 22 10.1881 21.9992 10.3059 21.9078C10.3712 21.8572 10.4646 21.7602 10.5134 21.6923C10.6002 21.5714 10.6023 21.5158 10.6138 18.9353L10.6255 16.3017H12H13.3745L13.3862 18.9353C13.3977 21.5158 13.3998 21.5714 13.4866 21.6923C13.5354 21.7602 13.6288 21.8572 13.6941 21.9078C13.8119 21.9992 13.8431 22 17.5058 22C21.1684 22 21.1996 21.9992 21.3174 21.9078C21.3828 21.8572 21.4761 21.7602 21.5249 21.6923C21.6131 21.5696 21.6136 21.541 21.6249 16.4685L21.6362 11.3681L21.9714 11.008C22.3628 10.5878 22.4376 10.4821 22.6398 10.0634C22.8227 9.68465 22.9587 9.16425 22.9936 8.7086C23.019 8.37841 23 8.28648 22.3283 5.48603C21.9481 3.90056 21.593 2.51285 21.5392 2.40223C21.4676 2.25488 21.3902 2.17421 21.2496 2.10056L21.0577 2H12H2.94233L2.75041 2.10056ZM21.026 5.99289C21.6156 8.44581 21.6401 8.56599 21.599 8.79736C21.4318 9.7364 20.8434 10.384 20.0113 10.5448C19.4634 10.6507 18.852 10.4205 18.4334 9.9507C18.0617 9.53359 17.9326 9.2122 17.8533 8.5069C17.7924 7.96603 17.5905 7.74302 17.1617 7.74302C16.7328 7.74302 16.5309 7.96603 16.47 8.5069C16.3907 9.2122 16.2616 9.53359 15.8899 9.9507C15.4713 10.4205 14.8599 10.6507 14.312 10.5448C13.9044 10.4661 13.5512 10.2643 13.2717 9.9507C12.9001 9.53359 12.7709 9.2122 12.6916 8.5069C12.6308 7.96603 12.4288 7.74302 12 7.74302C11.5712 7.74302 11.3692 7.96603 11.3084 8.5069C11.2291 9.2122 11.0999 9.53359 10.7283 9.9507C10.4488 10.2643 10.0956 10.4661 9.68801 10.5448C9.1401 10.6507 8.52866 10.4205 8.11005 9.9507C7.73841 9.53359 7.60928 9.2122 7.52997 8.5069C7.4691 7.96603 7.26719 7.74302 6.83835 7.74302C6.4095 7.74302 6.20759 7.96603 6.14673 8.5069C6.06741 9.2122 5.93828 9.53359 5.56665 9.9507C5.14804 10.4205 4.5366 10.6507 3.98869 10.5448C3.15658 10.384 2.56816 9.7364 2.40105 8.79736C2.35988 8.56599 2.38444 8.44581 2.97403 5.99289L3.59003 3.43017H12H20.41L21.026 5.99289ZM7.13484 10.9743C8.42353 12.352 10.4178 12.3491 11.7097 10.9676L12 10.6571L12.2903 10.9676C12.45 11.1384 12.6954 11.356 12.8357 11.4512C14.1437 12.3391 15.7712 12.144 16.8713 10.9676L17.1617 10.6571L17.452 10.9681C18.12 11.6838 19.0414 12.0668 19.9246 11.996L20.2586 11.9693V16.2807V20.5922H17.5068H14.7549L14.7431 17.9586C14.7316 15.3781 14.7296 15.3225 14.6427 15.2015C14.5939 15.1337 14.5006 15.0367 14.4352 14.986C14.3187 14.8956 14.2725 14.8939 12 14.8939C9.7275 14.8939 9.6813 14.8956 9.56477 14.986C9.49944 15.0367 9.4061 15.1337 9.35732 15.2015C9.27043 15.3225 9.26837 15.3781 9.25688 17.9586L9.24514 20.5922H6.49325H3.74136V16.2807V11.9693L4.07536 11.996C4.95568 12.0666 5.88822 11.6803 6.53725 10.9763C6.69103 10.8095 6.82445 10.6724 6.83375 10.6717C6.84304 10.671 6.97853 10.8071 7.13484 10.9743Z" fill="#4772DA"/>
</svg>
