<svg width="24" height="24" viewBox="0 0 24 24" fill="none" xmlns="http://www.w3.org/2000/svg">
    <g clip-path="url(#clip0_2201_45215)">
        <path d="M16.487 12.0001L20.0349 8.45225C20.1392 8.3479 20.2436 8.1392 20.2436 7.93051V4.48703C20.2436 4.06964 19.9305 3.86094 19.6175 3.86094H16.0696C15.8609 3.86094 15.7566 3.96529 15.5479 4.06964L12.0001 7.61746L8.45225 3.96529C8.3479 3.86094 8.1392 3.75659 8.03485 3.75659H4.48703C4.06964 3.75659 3.86094 4.06964 3.86094 4.38268V7.82616C3.86094 8.03485 3.96529 8.1392 4.06964 8.3479L7.61746 11.8957L4.06964 15.4436C3.96529 15.5479 3.86094 15.7566 3.86094 15.9653V19.5131C3.86094 19.9305 4.17399 20.1392 4.48703 20.1392H8.03485C8.24355 20.1392 8.3479 20.0349 8.55659 19.9305L12.1044 16.3827L15.6522 19.9305C15.7566 20.0349 15.9653 20.1392 16.0696 20.1392H19.6175C20.0349 20.1392 20.2436 19.8262 20.2436 19.5131V15.9653C20.2436 15.7566 20.1392 15.6522 20.0349 15.4436L16.487 12.0001ZM16.2783 5.11312H18.887V7.72181L15.5479 11.0609L12.9392 8.45225L16.2783 5.11312ZM12.0001 14.6088L9.49572 12.0001L12.0001 9.39138L14.6088 12.0001L12.0001 14.6088ZM5.11312 7.61746V5.11312H7.72181L11.0609 8.45225L8.55659 11.0609L5.11312 7.61746ZM7.72181 18.887H5.11312V16.2783L8.45225 12.9392L10.9566 15.5479L7.72181 18.887ZM18.887 18.887H16.2783L12.9392 15.5479L15.5479 12.9392L18.887 16.2783V18.887Z" fill="#4772DA"/>
        <path d="M12.5218 18.0522C12.3131 17.8436 11.7914 17.8436 11.5827 18.0522L9.18268 20.4522C8.97399 20.6609 8.97399 21.1827 9.18268 21.3914L11.5827 23.7914C11.687 23.8957 11.8957 24.0001 12.1044 24.0001C12.3131 24.0001 12.4175 23.8957 12.6262 23.7914L15.0262 21.3914C15.1305 21.287 15.2349 21.0783 15.2349 20.8696C15.2349 20.6609 15.1305 20.5566 15.0262 20.3479L12.5218 18.0522ZM12.0001 22.4349L10.5392 20.974L12.0001 19.5131L13.4609 20.974L12.0001 22.4349Z" fill="#4772DA"/>
        <path d="M23.7914 11.4783L21.3914 9.07833C21.287 8.97398 21.0783 8.86964 20.8696 8.86964C20.6609 8.86964 20.5566 8.97398 20.3479 9.07833L18.0522 11.4783C17.9479 11.5827 17.8436 11.7914 17.8436 12.0001C17.8436 12.2088 17.9479 12.3131 18.0522 12.5218L20.4522 14.9218C20.5566 15.0262 20.7653 15.1305 20.974 15.1305C21.1827 15.1305 21.287 15.0262 21.4957 14.9218L23.8957 12.5218C24.1044 12.2088 24.1044 11.7914 23.7914 11.4783ZM20.974 13.4609L19.5131 12.0001L20.974 10.5392L22.4349 12.0001L20.974 13.4609Z" fill="#4772DA"/>
        <path d="M11.5827 5.9479C11.687 6.05225 11.8957 6.15659 12.1044 6.15659C12.3131 6.15659 12.4175 6.05225 12.6262 5.9479L15.0262 3.5479C15.1305 3.44355 15.2349 3.23485 15.2349 3.02616C15.2349 2.81746 15.1305 2.71312 15.0262 2.50442L12.5218 0.208768C12.3131 7.21843e-05 11.7914 7.21843e-05 11.5827 0.208768L9.18268 2.60877C8.97399 2.81746 8.97399 3.3392 9.18268 3.5479L11.5827 5.9479ZM12.0001 1.56529L13.4609 3.02616L12.0001 4.48703L10.5392 3.02616L12.0001 1.56529Z" fill="#4772DA"/>
        <path d="M6.15659 12.0001C6.15659 11.7914 6.05225 11.687 5.9479 11.4783L3.5479 9.18268C3.3392 8.97399 2.81746 8.97399 2.60877 9.18268L0.208768 11.4783C7.21843e-05 11.687 7.21843e-05 12.2088 0.208768 12.4175L2.60877 14.8175C2.71312 14.9218 2.92181 15.0262 3.13051 15.0262C3.3392 15.0262 3.44355 14.9218 3.65225 14.8175L6.05225 12.4175C6.05225 12.3131 6.15659 12.2088 6.15659 12.0001ZM3.02616 13.4609L1.56529 12.0001L3.02616 10.5392L4.48703 12.0001L3.02616 13.4609Z" fill="#4772DA"/>
        <path d="M12.9392 11.374H12.7305V11.0609C12.7305 10.6436 12.4175 10.4349 12.1044 10.4349C11.7914 10.4349 11.4783 10.7479 11.4783 11.0609V11.374H11.2696C10.8522 11.374 10.6435 11.687 10.6435 12.0001C10.6435 12.3131 10.9566 12.6262 11.2696 12.6262H11.4783V12.7305C11.4783 13.1479 11.7914 13.3566 12.1044 13.3566C12.4175 13.3566 12.7305 13.0435 12.7305 12.7305V12.6262H12.9392C13.3566 12.6262 13.5653 12.3131 13.5653 12.0001C13.5653 11.687 13.2522 11.374 12.9392 11.374Z" fill="#4772DA"/>
    </g>
    <defs>
        <clipPath id="clip0_2201_45215">
            <rect width="24" height="24" fill="white"/>
        </clipPath>
    </defs>
</svg>
