<svg width="24" height="24" viewBox="0 0 24 24" fill="none" xmlns="http://www.w3.org/2000/svg">
    <path fill-rule="evenodd" clip-rule="evenodd" d="M7.00819 3.08991C5.25115 3.4848 3.99576 5.06165 4.00001 6.86825C4.00405 8.58076 5.15046 10.0925 6.82637 10.5953C7.30919 10.7401 8.23122 10.7443 8.76396 10.6041C10.1651 10.2353 11.3059 9.00864 11.5796 7.57654C12.0896 4.9091 9.63459 2.49968 7.00819 3.08991ZM18.4787 4.56766C18.2583 4.68844 4.28593 18.8072 4.17143 19.0249C3.93614 19.472 4.12435 20.0882 4.58246 20.3704C4.83672 20.5271 5.26807 20.5568 5.50824 20.4342C5.72781 20.3221 19.7055 6.20783 19.8286 5.97393C20.0639 5.52681 19.8757 4.9106 19.4175 4.62841C19.1654 4.47307 18.7056 4.4433 18.4787 4.56766ZM8.71362 5.38349C9.64996 5.96842 9.82534 7.26128 9.07565 8.05164C8.3848 8.77996 7.29821 8.79599 6.58973 8.08835C6.14139 7.6405 5.96947 6.78361 6.21106 6.20103C6.61593 5.22436 7.82614 4.82904 8.71362 5.38349ZM15.2057 14.3983C13.8264 14.7738 12.6911 16.0064 12.4204 17.4223C12.2502 18.3128 12.4675 19.4489 12.9505 20.1928C13.5555 21.1247 14.5739 21.7956 15.6288 21.9573C17.9064 22.3064 20.0055 20.4687 20 18.1306C19.996 16.4181 18.8495 14.9063 17.1736 14.4035C16.7009 14.2617 15.7171 14.2592 15.2057 14.3983ZM16.9499 16.5745C17.5433 16.8804 17.9019 17.4791 17.8956 18.1538C17.8862 19.1837 17.0926 19.922 16.0661 19.8559C14.6168 19.7627 13.9249 18.0002 14.9243 16.9474C15.4647 16.3781 16.2784 16.2283 16.9499 16.5745Z" fill="#F47500"/>
</svg>
