<svg width="24" height="24" viewBox="0 0 24 24" fill="none" xmlns="http://www.w3.org/2000/svg">
    <path d="M9.47899 12.3031C9.07563 12.3031 8.77311 12.603 8.77311 13.0029V15.1023C8.77311 15.5022 9.07563 15.8022 9.47899 15.8022C9.88235 15.8022 10.1849 15.5022 10.1849 15.1023V13.0029C10.1849 12.603 9.88235 12.3031 9.47899 12.3031Z" fill="#4772DA"/>
    <path d="M14.521 12.3031C14.1176 12.3031 13.8151 12.603 13.8151 13.0029V15.1023C13.8151 15.5022 14.1176 15.8022 14.521 15.8022C14.9244 15.8022 15.2269 15.5022 15.2269 15.1023V13.0029C15.2269 12.603 14.9244 12.3031 14.521 12.3031Z" fill="#4772DA"/>
    <path d="M23.395 8.4041H18.958C19.3613 7.90424 19.563 7.20442 19.563 6.5046V5.30492C19.563 4.90503 19.2605 4.6051 18.8571 4.6051H12.7059V2.40568C12.7059 1.80584 13.2101 1.30597 13.8151 1.30597C14.4202 1.30597 14.9244 1.80584 14.9244 2.40568V2.90555C14.9244 3.30545 15.2269 3.60537 15.6303 3.60537C16.0336 3.60537 16.1345 3.20547 16.1345 2.80558V2.50566C16.1345 1.30597 15.2269 0.106289 14.0168 0.00631502C12.605 -0.0936587 11.395 1.00605 11.395 2.40568V4.6051H5.14286C4.7395 4.6051 4.43698 4.90503 4.43698 5.30492V6.5046C4.43698 7.20442 4.63866 7.80426 5.04202 8.4041H0.705882C0.302521 8.4041 0 8.70403 0 9.00395V20.0011C0 20.4009 0.302521 20.7009 0.705882 20.7009H3.93277C4.03361 20.7009 4.03361 20.8008 4.03361 20.8008L2.72269 23.0003C2.62185 23.2002 2.62185 23.5001 2.72269 23.7001C2.82353 23.9 3.02521 24 3.22689 24H4.7395C4.94118 24 5.04202 23.9 5.2437 23.8001L8.26891 20.8008C8.26891 20.8008 8.26891 20.8008 8.26891 20.7009H15.5294C15.5294 20.7009 15.5294 20.7009 15.5294 20.8008L18.6555 23.8001C18.7563 23.9 18.958 24 19.1597 24H20.6723C20.874 24 21.1765 23.9 21.2773 23.7001C21.3782 23.5001 21.3782 23.2002 21.2773 23.0003L19.9664 20.9008C19.9664 20.8008 19.9664 20.8008 20.0672 20.8008H23.2941C23.6975 20.8008 24 20.5009 24 20.101V9.00395C24 8.70403 23.6975 8.4041 23.395 8.4041ZM6.05042 5.90476H18.0504C18.1513 5.90476 18.2521 6.00474 18.2521 6.10471V6.5046C18.2521 7.50434 17.4454 8.4041 16.3361 8.4041H7.66387C6.65546 8.4041 5.84874 7.60431 5.84874 6.60458V6.10471C5.84874 6.00474 5.94958 5.90476 6.05042 5.90476ZM4.53782 22.7003L5.44538 21.0008H6.2521L4.53782 22.7003ZM1.31092 19.1013V10.0037C1.31092 9.80374 1.41176 9.70376 1.61345 9.70376H10.9916C11.1933 9.70376 11.2941 9.80374 11.2941 10.0037C11.2941 11.5033 11.2941 17.6017 11.2941 19.1013C11.2941 19.3012 11.1933 19.4012 10.9916 19.4012H1.71429C1.51261 19.4012 1.31092 19.3012 1.31092 19.1013ZM19.4622 22.7003L17.7479 21.0008H18.5546L19.4622 22.7003ZM22.3866 19.4012H13.0084C12.8067 19.4012 12.7059 19.3012 12.7059 19.1013V10.0037C12.7059 9.80374 12.8067 9.70376 13.0084 9.70376H22.3866C22.5882 9.70376 22.6891 9.80374 22.6891 10.0037V19.1013C22.6891 19.3012 22.5882 19.4012 22.3866 19.4012Z" fill="#4772DA"/>
</svg>
