<svg width="24" height="24" viewBox="0 0 24 24" fill="none" xmlns="http://www.w3.org/2000/svg">
    <path fill-rule="evenodd" clip-rule="evenodd" d="M11.0828 0.0413937C10.5936 0.137491 10.3441 0.311151 9.39735 1.21464C8.80051 1.78414 8.43126 2.10138 8.31395 2.1453C8.15231 2.20583 8.03734 2.19823 7.0622 2.06234C6.4716 1.98004 5.84859 1.91083 5.67771 1.90853C4.97702 1.89915 4.33511 2.23722 3.94546 2.82089C3.70811 3.17647 3.65933 3.34994 3.43239 4.64524C3.32878 5.23669 3.21184 5.78282 3.17249 5.85888C3.0858 6.02658 2.96305 6.10499 2.00137 6.60664C0.692119 7.28955 0.465608 7.46926 0.197209 8.03782C0.046686 8.35671 0.00123365 8.58015 1.40783e-05 9.00771C-0.00115858 9.40533 0.069764 9.60001 0.650419 10.793C1.03196 11.577 1.14641 11.8561 1.14641 12.0028C1.14641 12.1494 1.03196 12.4285 0.650419 13.2125C0.069764 14.4055 -0.00115858 14.6002 1.40783e-05 14.9978C0.00123365 15.4254 0.046686 15.6488 0.197209 15.9677C0.465608 16.5363 0.692119 16.716 2.00137 17.3989C2.96305 17.9005 3.0858 17.9789 3.17249 18.1467C3.21184 18.2227 3.32897 18.77 3.43282 19.3627C3.53667 19.9556 3.65074 20.5372 3.68625 20.6554C3.94034 21.4999 4.72673 22.0886 5.61317 22.0981C5.79376 22.1 6.43525 22.0322 7.03875 21.9476C8.0365 21.8075 8.15208 21.7996 8.31395 21.8602C8.43126 21.9042 8.80051 22.2214 9.39735 22.7909C10.1176 23.4783 10.362 23.6827 10.5928 23.7907C11.1888 24.0698 11.811 24.0698 12.4071 23.7907C12.6378 23.6827 12.8822 23.4783 13.6025 22.7909C14.1994 22.2214 14.5686 21.9042 14.6859 21.8602C14.8476 21.7997 14.9625 21.8073 15.9377 21.9432C16.5283 22.0255 17.1513 22.0947 17.3221 22.097C18.0228 22.1064 18.6648 21.7683 19.0544 21.1846C19.2917 20.8291 19.3405 20.6556 19.5675 19.3603C19.6711 18.7688 19.788 18.2227 19.8274 18.1467C19.9149 17.9773 20.0202 17.911 21.1221 17.3316C22.1606 16.7855 22.3907 16.6213 22.6423 16.2469C22.8906 15.8775 22.996 15.5307 22.9998 15.0708C23.0037 14.595 22.9559 14.4585 22.3494 13.2125C21.9679 12.4285 21.8535 12.1494 21.8535 12.0028C21.8535 11.8561 21.9679 11.577 22.3494 10.793C22.9559 9.54699 23.0037 9.41049 22.9998 8.93474C22.996 8.47486 22.8906 8.12805 22.6423 7.75863C22.3907 7.38424 22.1606 7.22006 21.1221 6.67397C20.0202 6.09453 19.9149 6.02827 19.8274 5.85888C19.788 5.78282 19.6711 5.23669 19.5675 4.64524C19.3405 3.34994 19.2917 3.17647 19.0544 2.82089C18.6648 2.23722 18.0228 1.89915 17.3221 1.90853C17.1513 1.91083 16.5283 1.98004 15.9377 2.06234C14.9625 2.19823 14.8476 2.20583 14.6859 2.1453C14.5686 2.10138 14.1994 1.78414 13.6025 1.21464C12.8931 0.537692 12.636 0.32199 12.4149 0.218479C11.9641 0.00746881 11.5415 -0.0487443 11.0828 0.0413937ZM11.8517 1.48806C11.9291 1.53723 12.3777 1.94762 12.8486 2.4C13.7892 3.30354 14.0368 3.46767 14.5891 3.55363C14.9092 3.60346 15.0197 3.59366 16.4602 3.38734C16.9568 3.31616 17.3845 3.27754 17.479 3.29528C17.676 3.33225 17.8953 3.50779 17.9656 3.68483C17.994 3.75629 18.104 4.31007 18.2101 4.91537C18.4195 6.11086 18.4934 6.35865 18.7525 6.73507C18.9833 7.07033 19.1983 7.21799 20.3445 7.82845C20.8848 8.11623 21.3667 8.38664 21.4154 8.42934C21.5328 8.53229 21.6317 8.77366 21.6317 8.95684C21.6317 9.04956 21.4313 9.51818 21.0943 10.2136C20.5341 11.3696 20.4614 11.5752 20.4614 12.0028C20.4614 12.4304 20.5341 12.6359 21.0943 13.792C21.4313 14.4874 21.6317 14.956 21.6317 15.0487C21.6317 15.2319 21.5328 15.4732 21.4154 15.5762C21.3667 15.6189 20.8848 15.8893 20.3445 16.1771C19.1983 16.7875 18.9833 16.9352 18.7525 17.2705C18.4934 17.6469 18.4195 17.8947 18.2101 19.0902C18.104 19.6955 17.994 20.2492 17.9656 20.3207C17.8953 20.4977 17.676 20.6733 17.479 20.7103C17.3845 20.728 16.9568 20.6894 16.4602 20.6182C15.0197 20.4119 14.9092 20.4021 14.5891 20.4519C14.0368 20.5379 13.7892 20.702 12.8486 21.6055C12.3777 22.0579 11.9291 22.4683 11.8517 22.5175C11.6907 22.6198 11.3446 22.6349 11.1858 22.5466C11.1292 22.5151 10.7007 22.1249 10.2337 21.6794C9.32469 20.8122 9.13514 20.6672 8.73245 20.5305C8.35734 20.4032 7.91426 20.4161 6.72725 20.5889C6.10123 20.68 5.61842 20.7286 5.52076 20.7103C5.3239 20.6733 5.10461 20.4977 5.03425 20.3207C5.00582 20.2492 4.89583 19.6955 4.78977 19.0902C4.58038 17.8947 4.50651 17.6469 4.24735 17.2705C4.01652 16.9352 3.80155 16.7875 2.65539 16.1771C2.11507 15.8893 1.63316 15.6189 1.58447 15.5762C1.46711 15.4732 1.36813 15.2319 1.36813 15.0487C1.36813 14.956 1.56852 14.4874 1.90554 13.792C2.46579 12.6359 2.5385 12.4304 2.5385 12.0028C2.5385 11.5752 2.46579 11.3696 1.90554 10.2136C1.56852 9.51818 1.36813 9.04956 1.36813 8.95684C1.36813 8.77366 1.46711 8.53229 1.58447 8.42934C1.63316 8.38664 2.11507 8.11623 2.65539 7.82845C3.80155 7.21799 4.01652 7.07033 4.24735 6.73507C4.50651 6.35865 4.58038 6.11086 4.78977 4.91537C4.89583 4.31007 5.00582 3.75629 5.03425 3.68483C5.10461 3.50779 5.3239 3.33225 5.52086 3.29528C5.61537 3.27754 6.04307 3.31616 6.53967 3.38734C7.98021 3.59366 8.09063 3.60346 8.41076 3.55363C8.96309 3.46767 9.21071 3.30354 10.1512 2.4C10.6221 1.94762 11.0707 1.53723 11.1481 1.48806C11.3328 1.37071 11.6671 1.37071 11.8517 1.48806ZM8.19303 5.83214C7.02904 6.0911 6.19739 7.12518 6.2002 8.30992C6.20288 9.43297 6.96234 10.4243 8.07257 10.7541C8.39242 10.849 9.00324 10.8518 9.35616 10.7598C10.2843 10.518 11.0401 9.71356 11.2214 8.77441C11.5593 7.02514 9.93293 5.44508 8.19303 5.83214ZM15.7919 6.80123C15.6459 6.88043 6.38961 16.1394 6.31377 16.2821C6.15789 16.5753 6.28257 16.9794 6.58606 17.1645C6.7545 17.2672 7.04025 17.2867 7.19936 17.2063C7.34482 17.1328 16.6046 7.87683 16.6861 7.72344C16.842 7.43022 16.7173 7.02613 16.4138 6.84106C16.2468 6.7392 15.9422 6.71968 15.7919 6.80123ZM9.32281 7.33624C9.94311 7.71983 10.0593 8.56767 9.56265 9.08597C9.10498 9.5636 8.38515 9.57411 7.91581 9.11005C7.6188 8.81636 7.50491 8.25441 7.66495 7.87237C7.93316 7.23188 8.73489 6.97263 9.32281 7.33624ZM13.6236 13.248C12.7098 13.4942 11.9577 14.3026 11.7784 15.2311C11.6657 15.8151 11.8097 16.5602 12.1296 17.048C12.5304 17.6591 13.205 18.0991 13.9039 18.2051C15.4127 18.434 16.8033 17.2289 16.7997 15.6956C16.797 14.5726 16.0375 13.5812 14.9273 13.2515C14.6141 13.1585 13.9624 13.1568 13.6236 13.248ZM14.7791 14.6751C15.1722 14.8758 15.4097 15.2684 15.4056 15.7109C15.3993 16.3862 14.8736 16.8704 14.1936 16.827C13.2335 16.7659 12.7751 15.6101 13.4372 14.9197C13.7952 14.5464 14.3343 14.4481 14.7791 14.6751Z" fill="#E97171"/>
</svg>
