<svg width="24" height="24" viewBox="0 0 24 24" fill="none" xmlns="http://www.w3.org/2000/svg">
    <path d="M23.3 6.57385C23.7 6.57385 24 6.25776 24 5.83629V1.93776C24 1.51629 23.7 1.2002 23.3 1.2002H13.5H3.7C3.3 1.2002 3 1.51629 3 1.93776V5.2041H0.7C0.3 5.2041 0 5.5202 0 5.94166V9.94556C0 10.367 0.3 10.6831 0.7 10.6831H3V13.3173H0.7C0.3 13.3173 0 13.6334 0 14.0548V18.0587C0 18.4802 0.3 18.7963 0.7 18.7963H3V22.0626C3 22.4841 3.3 22.8002 3.7 22.8002H13.5H23.3C23.7 22.8002 24 22.4841 24 22.0626V18.0587C24 17.6373 23.7 17.3212 23.3 17.3212H19.1V14.687H23.3C23.7 14.687 24 14.3709 24 13.9495V9.94556C24 9.5241 23.7 9.208 23.3 9.208H19.1V6.57385H23.3ZM22.6 5.2041H18.4H14.2V2.56995H22.7V5.2041H22.6ZM4.4 2.56995H12.9V5.2041H8.6H4.4V2.56995ZM1.3 6.57385H3.7H7.9V9.208H3.7H1.3V6.57385ZM4.4 10.5778H8.6H12.8V13.2119H8.6H4.4V10.5778ZM1.3 14.5817H3.7H7.9V17.2158H3.7H1.3V14.5817ZM4.4 18.5856H8.6H12.8V21.2197H4.4V18.5856ZM22.6 21.2197H14.1V18.5856H18.3H22.5V21.2197H22.6ZM17.7 17.2158H13.5H9.3V14.5817H13.5H17.7V17.2158ZM22.6 13.2119H18.4H14.2V10.5778H18.4H22.6V13.2119ZM17.7 9.208H13.5H9.3V6.57385H13.5H17.7V9.208Z" fill="#4772DA"/>
</svg>
