<svg width="24" height="24" viewBox="0 0 24 24" fill="none" xmlns="http://www.w3.org/2000/svg">
    <path d="M5.4987 9.18261C5.39124 9.18261 5.28378 9.18261 5.17631 9.07826L1.63005 7.09565C1.41512 6.9913 1.30766 6.78261 1.30766 6.57391V2.6087C1.30766 2.4 1.41512 2.1913 1.63005 1.98261L5.06885 0C5.28378 0 5.60617 0 5.82109 0.104348L9.2599 2.08696C9.47482 2.1913 9.58228 2.4 9.58228 2.71304V6.57391C9.58228 6.78261 9.47482 6.9913 9.2599 7.2L5.82109 9.07826C5.71363 9.07826 5.60617 9.18261 5.4987 9.18261ZM2.70467 6.15652L5.4987 7.72174L8.29273 6.15652V3.02609L5.4987 1.46087L2.70467 3.02609V6.15652Z" fill="#4772DA"/>
    <path d="M9.79721 16.487C9.68975 16.487 9.58228 16.487 9.47482 16.3826L6.03602 14.4C5.82109 14.2957 5.71363 14.087 5.71363 13.7739V9.91304C5.71363 9.70435 5.82109 9.49565 6.03602 9.28696L9.47482 7.30435C9.68975 7.30435 9.90467 7.30435 10.1196 7.4087L13.6659 9.3913C13.8808 9.49565 13.9883 9.70435 13.9883 10.0174V13.8783C13.9883 14.087 13.8808 14.2957 13.6659 14.5043L10.2271 16.487C10.0121 16.3826 9.90467 16.487 9.79721 16.487ZM7.00318 13.4609L9.79721 15.0261L12.5912 13.4609V10.3304L9.79721 8.76522L7.00318 10.3304V13.4609Z" fill="#4772DA"/>
    <path d="M14.2032 9.18261C14.0957 9.18261 13.9883 9.18261 13.8808 9.07826L10.3345 7.09565C10.1196 6.9913 10.0121 6.78261 10.0121 6.57391V2.6087C10.0121 2.4 10.1196 2.1913 10.3345 1.98261L13.7733 0C14.0957 0 14.3106 0 14.5256 0.104348L17.9644 2.08696C18.1793 2.1913 18.3942 2.4 18.3942 2.6087V6.46956C18.3942 6.67826 18.2868 6.88696 18.0718 7.09565L14.633 9.07826C14.4181 9.07826 14.3106 9.18261 14.2032 9.18261ZM11.4092 6.15652L14.2032 7.72174L16.9972 6.15652V3.02609L14.2032 1.46087L11.4092 3.02609V6.15652Z" fill="#4772DA"/>
    <path d="M18.7166 16.487C18.6091 16.487 18.5017 16.487 18.3942 16.3826L14.9554 14.4C14.7405 14.2957 14.633 14.087 14.633 13.7739V9.91304C14.633 9.70435 14.7405 9.49565 14.9554 9.28696L18.3942 7.30435C18.6091 7.2 18.8241 7.2 19.039 7.30435L22.4778 9.3913C22.6927 9.49565 22.8002 9.70435 22.8002 10.0174V13.8783C22.8002 14.087 22.6927 14.2957 22.4778 14.5043L19.039 16.487C18.9315 16.3826 18.8241 16.487 18.7166 16.487ZM15.9226 13.4609L18.7166 15.0261L21.5106 13.4609V10.3304L18.7166 8.76522L15.9226 10.3304V13.4609Z" fill="#4772DA"/>
    <path d="M5.39124 24C5.28378 24 5.17631 24 5.06885 23.8957L1.52258 21.913C1.30766 21.8087 1.2002 21.6 1.2002 21.3913V17.5304C1.2002 17.3217 1.30766 17.113 1.52258 16.9043L4.96139 14.9217C5.17631 14.8174 5.39124 14.8174 5.60616 14.9217L9.04497 16.9043C9.2599 17.0087 9.36736 17.2174 9.36736 17.5304V21.3913C9.36736 21.6 9.2599 21.8087 9.04497 22.0174L5.60616 24C5.60616 24 5.4987 24 5.39124 24ZM2.59721 20.9739L5.39124 22.5391L8.18527 20.9739V17.8435L5.39124 16.2783L2.59721 17.8435V20.9739Z" fill="#4772DA"/>
    <path d="M14.2032 24C14.0957 24 13.9883 24 13.8808 23.8957L10.442 21.913C10.2271 21.8087 10.1196 21.6 10.1196 21.287V17.4261C10.1196 17.2174 10.2271 17.0087 10.442 16.8L13.8808 14.8174C14.0957 14.713 14.3106 14.713 14.5256 14.8174L17.9644 16.8C18.1793 16.9043 18.2868 17.113 18.2868 17.4261V21.287C18.2868 21.4957 18.1793 21.7043 17.9644 21.913L14.5256 23.8957C14.5256 24 14.3106 24 14.2032 24ZM11.4092 20.9739L14.2032 22.5391L16.9972 20.9739V17.8435L14.2032 16.2783L11.4092 17.8435V20.9739Z" fill="#4772DA"/>
</svg>
