<svg width="24" height="24" viewBox="0 0 24 24" fill="none" xmlns="http://www.w3.org/2000/svg">
    <path d="M23.2664 0H18.0262H5.9738H0.733624C0.31441 0 0 0.31441 0 0.733624V5.9738V17.8166V23.0568V23.2664C0 23.6856 0.31441 24 0.733624 24H23.2664C23.6856 24 24 23.6856 24 23.2664V23.0568V17.8166V5.9738V0.733624C24 0.31441 23.6856 0 23.2664 0ZM17.2926 5.65939L15.3013 7.65066L12.4716 4.82096C12.262 4.61135 11.738 4.61135 11.5284 4.82096L8.69869 7.65066L6.60262 5.65939V1.36245H17.2926V5.65939ZM11.9476 17.607L6.28821 11.9476L11.9476 6.28821L17.607 11.9476L11.9476 17.607ZM5.65939 6.60262L7.65066 8.59389L4.82096 11.5284C4.50655 11.8428 4.50655 12.262 4.82096 12.4716L7.54585 15.1965L5.65939 17.083H1.36245V6.60262H5.65939V6.60262ZM5.24017 18.4454V22.3231H1.36245V18.4454H5.24017ZM6.60262 18.131L8.48908 16.2445L11.4236 19.179C11.5284 19.2838 11.738 19.3886 11.9476 19.3886C12.1572 19.3886 12.262 19.2838 12.4716 19.179L15.4061 16.2445L17.2926 18.131V22.6376H6.60262V18.131ZM22.5328 22.3231H18.655V18.4454H22.5328V22.3231ZM18.3406 17.083L16.4541 15.1965L19.179 12.4716C19.2838 12.3668 19.3886 12.1572 19.3886 11.9476C19.3886 11.738 19.2838 11.6332 19.179 11.4236L16.3493 8.59389L18.3406 6.60262H22.6376V17.083H18.3406V17.083ZM22.5328 1.36245V5.24017H18.655V1.36245H22.5328ZM1.36245 1.36245H5.24017V5.24017H1.36245V1.36245Z" fill="#4772DA"/>
</svg>
