<svg width="24" height="24" viewBox="0 0 24 24" fill="none" xmlns="http://www.w3.org/2000/svg">
    <path fill-rule="evenodd" clip-rule="evenodd" d="M13.2865 1.06069C12.3982 1.15651 11.6535 1.36156 10.9683 1.69914C9.20374 2.56832 8.20533 4.04682 7.82597 6.35252C7.70827 7.06776 7.66412 8.70989 7.7337 9.78302C7.76344 10.2414 7.85513 10.9799 7.96341 11.6331C8.16809 12.8676 8.22157 13.4517 8.14297 13.5941C8.09877 13.6741 8.05297 13.6882 7.83737 13.688C7.4238 13.6877 7.17913 13.5006 6.95781 13.0153C6.69717 12.444 6.55076 11.2384 6.62213 10.2516C6.67059 9.5817 6.64392 9.44467 6.42974 9.26237C6.23891 9.09991 6.03068 9.05977 5.70564 9.12276C5.3277 9.19598 5.01114 9.36567 4.66938 9.67825C4.15 10.1532 3.74956 10.8063 3.43451 11.6921C3.13837 12.5247 3.03261 13.1058 3.00465 14.054C2.96231 15.4903 3.20684 16.6366 3.82914 17.9187C5.12107 20.5805 7.6283 22.4215 10.6459 22.924C11.2591 23.0261 12.6854 23.0252 13.3309 22.9222C14.8977 22.6724 16.1453 22.1613 17.436 21.2404C17.8832 20.9214 18.8214 20.0145 19.1777 19.557C20.4192 17.9624 21.0605 16.0472 20.9955 14.1281C20.9689 13.3416 20.9097 13.0106 20.6717 12.3157C20.2778 11.1658 19.6069 10.1387 18.5935 9.13394C18.0471 8.59235 17.6229 8.25912 16.7925 7.7195C15.8094 7.08067 15.2191 6.45655 14.8142 5.62781C14.5423 5.07159 14.4695 4.71887 14.4707 3.96465C14.4719 3.20354 14.5333 2.91252 14.8389 2.21905C15.0494 1.74139 15.0686 1.51327 14.9166 1.29272C14.7058 0.986774 14.3895 0.94177 13.2865 1.06069ZM13.3309 2.40719C13.3309 2.42612 13.2903 2.61492 13.2406 2.82669C13.0965 3.44061 13.0769 4.29977 13.1929 4.92147C13.4102 6.08624 13.9616 7.04724 14.914 7.92107C15.3267 8.29974 15.4819 8.41474 16.4834 9.08391C18.1117 10.1719 19.3227 11.8689 19.612 13.468C19.7411 14.1819 19.6767 15.2364 19.4506 16.1097C18.8009 18.6194 16.7932 20.6472 14.2052 21.4077C12.1191 22.0207 9.91741 21.7366 8.01769 20.6094C5.43697 19.078 3.96649 16.1171 4.39089 13.3065C4.51494 12.4851 4.86993 11.4858 5.18001 11.0853C5.24542 11.0008 5.24698 11.0012 5.26957 11.1068C5.28222 11.166 5.30281 11.4097 5.31528 11.6484C5.34031 12.1267 5.473 12.8228 5.61697 13.231C5.89803 14.0281 6.31608 14.52 6.96119 14.8127C7.22467 14.9322 7.32568 14.9533 7.71311 14.9696C8.43872 15.0002 8.92423 14.8047 9.22837 14.3592C9.57781 13.8473 9.59064 13.2827 9.29303 11.5155C9.0698 10.1897 9.0098 9.3646 9.03966 8.03049C9.07024 6.6651 9.20298 5.86083 9.52939 5.06389C10.0247 3.85437 10.9322 3.0033 12.1455 2.61044C12.7271 2.42217 13.3309 2.31861 13.3309 2.40719Z" fill="#F3BD5E"/>
</svg>
