<svg width="24" height="24" viewBox="0 0 24 24" fill="none" xmlns="http://www.w3.org/2000/svg">
    <path d="M20.7046 12.6H19.6103L17.3222 0.5C17.2227 0.2 17.0237 0 16.6258 0H7.07555C6.7771 0 6.47866 0.2 6.47866 0.5L4.19058 12.5H3.09628C2.69835 12.5 2.3999 12.8 2.3999 13.2V15.4C2.3999 15.8 2.69835 16.1 3.09628 16.1H9.66208V19.2C7.47348 19.9 6.08073 21.5 6.08073 23.3C6.08073 23.7 6.37918 24 6.67762 24H17.0237C17.4217 24 17.7201 23.7 17.7201 23.3C17.7201 21.5 16.2279 19.9 14.1388 19.2V16.1H17.3222V16.4C16.4268 16.7 15.83 17.5 15.83 18.5C15.83 19.7 16.8248 20.7 18.0186 20.7C19.2123 20.7 20.2072 19.7 20.2072 18.5C20.2072 17.5 19.6103 16.7 18.7149 16.4V16.1H20.9035C21.3015 16.1 21.5999 15.8 21.5999 15.4V13.2C21.3015 12.9 21.1025 12.6 20.7046 12.6ZM17.9191 19.4C17.4217 19.4 17.0237 19 17.0237 18.5C17.0237 18 17.4217 17.6 17.9191 17.6C18.4165 17.6 18.8144 18 18.8144 18.5C18.8144 19 18.317 19.4 17.9191 19.4ZM7.67244 1.3H16.1284L18.2175 12.6H5.58332L7.67244 1.3ZM16.3274 22.7H7.47348C7.8714 21.6 8.96571 20.8 10.5574 20.4H13.1439C14.7357 20.7 15.9294 21.6 16.3274 22.7ZM12.746 19H10.9553V16.1H12.746V19ZM20.0082 14.8H3.69317V13.9H19.9087V14.8H20.0082Z" fill="#4772DA"/>
</svg>
