<svg width="24" height="24" viewBox="0 0 24 24" fill="none" xmlns="http://www.w3.org/2000/svg">
    <path fill-rule="evenodd" clip-rule="evenodd" d="M11.5647 0.0413937C11.0541 0.137491 10.7938 0.311151 9.80593 1.21464C9.18314 1.78414 8.79784 2.10138 8.67543 2.1453C8.50676 2.20583 8.38679 2.19823 7.36926 2.06234C6.75298 1.98004 6.10288 1.91083 5.92457 1.90853C5.19342 1.89915 4.52359 2.23722 4.117 2.82089C3.86933 3.17647 3.81843 3.34994 3.58163 4.64524C3.47351 5.23669 3.35149 5.78282 3.31042 5.85888C3.21997 6.02658 3.09188 6.10499 2.08839 6.60664C0.722211 7.28955 0.485851 7.46926 0.205783 8.03782C0.0487158 8.35671 0.00128728 8.58015 1.46904e-05 9.00771C-0.00120896 9.40533 0.0727972 9.60001 0.678698 10.793C1.07682 11.577 1.19625 11.8561 1.19625 12.0028C1.19625 12.1494 1.07682 12.4285 0.678698 13.2125C0.0727972 14.4055 -0.00120896 14.6002 1.46904e-05 14.9978C0.00128728 15.4254 0.0487158 15.6488 0.205783 15.9677C0.485851 16.5363 0.722211 16.716 2.08839 17.3989C3.09188 17.9005 3.21997 17.979 3.31042 18.1467C3.35149 18.2227 3.4737 18.77 3.58207 19.3627C3.69044 19.9556 3.80947 20.5372 3.84652 20.6554C4.11166 21.4999 4.93224 22.0886 5.85722 22.0981C6.04566 22.1 6.71505 22.0323 7.34478 21.9476C8.38591 21.8075 8.50652 21.7996 8.67543 21.8602C8.79784 21.9042 9.18314 22.2214 9.80593 22.7909C10.5575 23.4783 10.8126 23.6827 11.0534 23.7907C11.6753 24.0698 12.3245 24.0698 12.9465 23.7907C13.1873 23.6827 13.4423 23.4783 14.1939 22.7909C14.8167 22.2214 15.202 21.9042 15.3244 21.8602C15.4931 21.7997 15.6131 21.8073 16.6306 21.9432C17.2469 22.0255 17.897 22.0947 18.0753 22.097C18.8064 22.1064 19.4763 21.7683 19.8829 21.1846C20.1305 20.8291 20.1814 20.6556 20.4182 19.3603C20.5264 18.7688 20.6484 18.2227 20.6894 18.1467C20.7808 17.9773 20.8906 17.911 22.0404 17.3316C23.1241 16.7855 23.3642 16.6213 23.6268 16.2469C23.8859 15.8775 23.9958 15.5307 23.9998 15.0708C24.0039 14.595 23.954 14.4585 23.3212 13.2125C22.923 12.4285 22.8036 12.1494 22.8036 12.0028C22.8036 11.8561 22.923 11.577 23.3212 10.793C23.954 9.54699 24.0039 9.41049 23.9998 8.93474C23.9958 8.47486 23.8859 8.12805 23.6268 7.75863C23.3642 7.38424 23.1241 7.22006 22.0404 6.67397C20.8906 6.09453 20.7808 6.02827 20.6894 5.85888C20.6484 5.78282 20.5264 5.23669 20.4182 4.64524C20.1814 3.34994 20.1305 3.17647 19.8829 2.82089C19.4763 2.23722 18.8064 1.89915 18.0753 1.90853C17.897 1.91083 17.2469 1.98004 16.6306 2.06234C15.6131 2.19823 15.4931 2.20583 15.3244 2.1453C15.202 2.10138 14.8167 1.78414 14.1939 1.21464C13.4537 0.537692 13.1854 0.32199 12.9547 0.218479C12.4842 0.0074688 12.0433 -0.0487443 11.5647 0.0413937ZM12.367 1.48806C12.4478 1.53723 12.9159 1.94762 13.4073 2.4C14.3887 3.30354 14.6471 3.46767 15.2234 3.55363C15.5575 3.60346 15.6727 3.59366 17.1759 3.38734C17.694 3.31616 18.1403 3.27754 18.239 3.29528C18.4445 3.33225 18.6733 3.50779 18.7467 3.68483C18.7764 3.75629 18.8912 4.31007 19.0018 4.91537C19.2203 6.11086 19.2974 6.35865 19.5678 6.73507C19.8087 7.07033 20.033 7.21799 21.229 7.82845C21.7928 8.11623 22.2957 8.38664 22.3465 8.42934C22.469 8.53229 22.5722 8.77366 22.5722 8.95684C22.5722 9.04956 22.3631 9.51818 22.0115 10.2136C21.4269 11.3696 21.351 11.5752 21.351 12.0028C21.351 12.4304 21.4269 12.6359 22.0115 13.792C22.3631 14.4874 22.5722 14.956 22.5722 15.0487C22.5722 15.2319 22.469 15.4732 22.3465 15.5762C22.2957 15.6189 21.7928 15.8893 21.229 16.1771C20.033 16.7875 19.8087 16.9352 19.5678 17.2705C19.2974 17.6469 19.2203 17.8947 19.0018 19.0902C18.8912 19.6955 18.7764 20.2492 18.7467 20.3207C18.6733 20.4977 18.4445 20.6733 18.239 20.7103C18.1403 20.728 17.694 20.6894 17.1759 20.6182C15.6727 20.4119 15.5575 20.4021 15.2234 20.4519C14.6471 20.5379 14.3887 20.702 13.4073 21.6055C12.9159 22.0579 12.4478 22.4683 12.367 22.5175C12.199 22.6198 11.8379 22.6349 11.6722 22.5466C11.6131 22.5151 11.166 22.1249 10.6787 21.6794C9.73011 20.8122 9.53232 20.6672 9.11212 20.5305C8.7207 20.4032 8.25836 20.4161 7.01973 20.5889C6.3665 20.68 5.8627 20.7286 5.7608 20.7103C5.55537 20.6733 5.32655 20.4977 5.25313 20.3207C5.22347 20.2492 5.10869 19.6955 4.99802 19.0902C4.77953 17.8947 4.70244 17.6469 4.43201 17.2705C4.19115 16.9352 3.96683 16.7875 2.77084 16.1771C2.20703 15.8893 1.70416 15.6189 1.65336 15.5762C1.53089 15.4732 1.42762 15.2319 1.42762 15.0487C1.42762 14.956 1.63672 14.4874 1.98839 13.792C2.573 12.6359 2.64887 12.4304 2.64887 12.0028C2.64887 11.5752 2.573 11.3696 1.98839 10.2136C1.63672 9.51818 1.42762 9.04956 1.42762 8.95684C1.42762 8.77366 1.53089 8.53229 1.65336 8.42934C1.70416 8.38664 2.20703 8.11623 2.77084 7.82845C3.96683 7.21799 4.19115 7.07033 4.43201 6.73507C4.70244 6.35865 4.77953 6.11086 4.99802 4.91537C5.10869 4.31007 5.22347 3.75629 5.25313 3.68483C5.32655 3.50779 5.55537 3.33225 5.7609 3.29528C5.85952 3.27754 6.30581 3.31616 6.824 3.38734C8.32718 3.59366 8.4424 3.60346 8.77645 3.55363C9.35279 3.46767 9.61117 3.30354 10.5926 2.4C11.084 1.94762 11.5521 1.53723 11.6328 1.48806C11.8255 1.37071 12.1743 1.37071 12.367 1.48806Z" fill="#61BA8A"/>
    <path d="M11.3333 6.66667C11.3333 6.29848 11.6318 6 12 6C12.3682 6 12.6667 6.29848 12.6667 6.66667V17.3333C12.6667 17.7015 12.3682 18 12 18C11.6318 18 11.3333 17.7015 11.3333 17.3333V6.66667Z" fill="#61BA8A"/>
    <path d="M12.6667 12.6667V11.3333H17.3333C17.7015 11.3333 18 11.6318 18 12C18 12.3682 17.7015 12.6667 17.3333 12.6667H12.6667Z" fill="#61BA8A"/>
    <path d="M6.66667 12.6667C6.29848 12.6667 6 12.3682 6 12C6 11.6318 6.29848 11.3333 6.66667 11.3333H11.3333V12.6667H6.66667Z" fill="#61BA8A"/>
</svg>
