<svg width="24" height="24" viewBox="0 0 24 24" fill="none" xmlns="http://www.w3.org/2000/svg">
    <path fill-rule="evenodd" clip-rule="evenodd" d="M9.98042 3.01919C7.78291 3.0797 5.03379 3.29886 4.43368 3.46137C3.6744 3.66703 2.80336 4.21951 2.309 4.80905C1.59059 5.66582 1.36972 6.34031 1.17541 8.27109C0.941529 10.5948 0.941529 12.4206 1.17541 14.7444C1.36972 16.6751 1.59059 17.3496 2.309 18.2064C2.79864 18.7903 3.68476 19.3525 4.43368 19.5545C4.92667 19.6874 6.3002 19.815 8.66985 19.948C9.90514 20.0173 14.0949 20.0173 15.3302 19.948C17.7034 19.8148 19.0744 19.6873 19.5663 19.5541C20.3256 19.3484 21.1966 18.7959 21.691 18.2064C22.4094 17.3496 22.6303 16.6751 22.8246 14.7444C23.0585 12.4206 23.0585 10.5948 22.8246 8.27109C22.6649 6.68429 22.5151 6.07529 22.1218 5.41464C21.4923 4.35702 20.3783 3.58126 19.1974 3.37816C18.5477 3.26645 16.2283 3.10164 14.3419 3.0332C13.3072 2.99564 11.0938 2.98853 9.98042 3.01919ZM14.3419 4.7372C15.6083 4.784 16.9725 4.86871 18.1447 4.97335C19.0015 5.04979 19.4219 5.16456 19.8311 5.4338C20.2952 5.73902 20.6856 6.24998 20.8682 6.79071C20.9487 7.02916 21.0792 7.98124 21.1819 9.08025C21.285 10.1831 21.285 12.8324 21.1819 13.9352C21.0792 15.0342 20.9487 15.9863 20.8682 16.2247C20.7377 16.6113 20.5325 16.9373 20.23 17.2383C19.6876 17.7781 19.2644 17.9411 18.1447 18.0416C14.3184 18.3852 10.5954 18.4062 6.67176 18.1063C6.04547 18.0584 5.40041 18.0009 5.23833 17.9783C4.26657 17.8433 3.44825 17.1621 3.13178 16.2247C3.05126 15.9863 2.92084 15.0342 2.81806 13.9352C2.71498 12.8324 2.71498 10.1831 2.81806 9.08025C2.92084 7.98124 3.05126 7.02916 3.13178 6.79071C3.45139 5.84409 4.27104 5.1681 5.26093 5.03471C5.97741 4.93821 8.60436 4.76586 10.0234 4.72229C11.0335 4.69129 13.3123 4.69917 14.3419 4.7372ZM9.31439 7.58501C9.10638 7.68015 8.97545 7.81498 8.88676 8.02545C8.82862 8.1633 8.82037 8.60076 8.82119 11.4957C8.82209 14.6077 8.82686 14.8186 8.90038 14.979C9.05941 15.3258 9.45722 15.5484 9.81198 15.489C9.90686 15.4731 10.4142 15.2152 10.9995 14.8852C11.5616 14.5684 12.8046 13.8682 13.7618 13.3293C14.7189 12.7903 15.5928 12.2928 15.7038 12.2237C16.1458 11.9484 16.2529 11.3402 15.9269 10.9561C15.8613 10.8788 15.1913 10.4741 14.242 9.93825C10.5797 7.87111 10.1242 7.61635 9.99254 7.5618C9.80038 7.4822 9.51807 7.49183 9.31439 7.58501ZM13.3906 11.4212C13.4849 11.4792 13.4999 11.5053 13.455 11.5331C13.3166 11.6192 10.5686 13.1686 10.5545 13.1686C10.546 13.1686 10.539 12.4131 10.539 11.4896V9.81062L11.9033 10.5781C12.6537 11.0002 13.323 11.3796 13.3906 11.4212Z" fill="#F40000"/>
</svg>
