<svg width="24" height="24" viewBox="0 0 24 24" fill="none" xmlns="http://www.w3.org/2000/svg">
    <path fill-rule="evenodd" clip-rule="evenodd" d="M13.1476 0.509746C10.9659 0.826714 9.62408 1.04151 9.53629 1.08793C9.45946 1.12857 7.37944 3.18539 4.91404 5.65867C0.783112 9.80276 0.419918 10.1797 0.284235 10.4631C-0.101331 11.2686 -0.0945307 12.0918 0.304027 12.8661C0.466067 13.1809 0.758537 13.4865 4.25776 16.9982C6.33605 19.0839 8.14419 20.8738 8.2758 20.9759L8.51513 21.1615L8.5428 21.5717C8.61624 22.6621 9.28091 23.5384 10.3023 23.8915L10.616 24H16.2675H21.919L22.2327 23.8915C23 23.6262 23.5733 23.0572 23.8768 22.2598L23.9826 21.982L23.9953 15.4934C24.0068 9.5751 24.0012 8.9918 23.9316 8.85707C23.8896 8.77578 23.3234 7.99988 22.6735 7.13284C22.0236 6.26576 21.4751 5.52872 21.4547 5.49497C21.4343 5.46118 21.4431 5.25399 21.4742 5.03449C21.5585 4.43993 21.5338 4.39521 20.6069 3.46908L19.8331 2.69586L20.6043 1.91935C21.5459 0.971212 21.6302 0.814934 21.4265 0.394015C21.2618 0.0534417 20.8543 -0.0939197 20.5184 0.0655497C20.4368 0.104314 20.0226 0.484216 19.5979 0.909734L18.8258 1.68343L18.0274 0.889413C17.5883 0.452679 17.1695 0.0728239 17.0969 0.0452289C17.0243 0.0176807 16.8871 -0.00259321 16.7921 0.000269542C16.697 0.00308537 15.057 0.232387 13.1476 0.509746ZM17.1945 2.07253L17.8154 2.69506L17.3231 3.186L16.8308 3.67694L16.5375 3.39005C16.1858 3.04615 16.1006 2.99861 15.8368 2.99884C15.3204 2.99926 14.986 3.5391 15.2177 3.99827C15.3176 4.19636 17.1698 6.06888 17.4375 6.24243C17.9952 6.60408 18.6214 6.16575 18.4968 5.50103C18.4733 5.37549 18.3796 5.24052 18.1537 5.00633L17.843 4.6843L18.3337 4.19326L18.8245 3.70223L19.4431 4.32425L20.0616 4.94626L19.6067 8.12575L19.1519 11.3052L14.8605 15.6025C12.338 18.1285 10.4918 19.9415 10.3815 20.0009C10.1347 20.1339 9.61395 20.1422 9.37317 20.0169C9.14467 19.8981 1.65424 12.4095 1.52779 12.1735C1.39277 11.9215 1.38541 11.4089 1.51302 11.1411C1.57329 11.0145 2.9983 9.55394 5.8852 6.65978L10.1679 2.36622L13.2998 1.91306C15.0223 1.66381 16.4636 1.45765 16.5027 1.45492C16.5417 1.4522 16.853 1.73012 17.1945 2.07253ZM11.9269 5.36427C11.8482 5.39853 11.7287 5.49216 11.6614 5.57227C11.5697 5.68124 11.111 7.00285 9.84268 10.8117C8.02497 16.2704 8.09499 16.0186 8.30028 16.3571C8.53694 16.7473 9.18777 16.7475 9.44319 16.3575C9.55162 16.1918 12.8907 6.14604 12.8907 5.98535C12.8907 5.76759 12.709 5.49718 12.492 5.3921C12.2682 5.28369 12.1276 5.27675 11.9269 5.36427ZM22.599 15.4965C22.599 22.3702 22.6239 21.8892 22.2485 22.2648C21.8754 22.6381 22.26 22.6156 16.2675 22.6156C10.275 22.6156 10.6595 22.6381 10.2865 22.2648C10.1238 22.102 9.93597 21.7351 9.93597 21.58C9.93597 21.5618 10.0362 21.5324 10.1587 21.5148C10.4995 21.4659 10.7998 21.368 11.1211 21.2013C11.3739 21.0701 12.0186 20.4454 15.9043 16.5654C19.5095 12.9656 20.4086 12.0439 20.4627 11.8927C20.4998 11.789 20.6594 10.775 20.8175 9.6393C20.9755 8.50359 21.1143 7.54513 21.1259 7.50941C21.1379 7.47248 21.4597 7.8612 21.873 8.41212L22.599 9.37973V15.4965ZM6.14212 8.91573C5.38932 9.06365 4.71133 9.69914 4.52097 10.4352C4.32211 11.2042 4.54015 11.9644 5.11589 12.5093C5.65989 13.0241 6.3716 13.2057 7.10038 13.0159C8.12304 12.7494 8.81041 11.6808 8.62544 10.645C8.41471 9.46505 7.29929 8.6883 6.14212 8.91573ZM14.0378 8.93042C13.4275 9.07876 12.9056 9.49987 12.6231 10.072C12.4681 10.3858 12.4469 10.4724 12.4299 10.8619C12.4146 11.2122 12.4305 11.3643 12.5097 11.6252C12.9623 13.1164 14.8786 13.582 15.9923 12.4715C16.8068 11.6593 16.8142 10.3701 16.0093 9.52573C15.4962 8.98744 14.7411 8.75945 14.0378 8.93042ZM6.92741 10.4014C7.25117 10.6433 7.33577 10.9708 7.15952 11.3004C6.91372 11.7602 6.28709 11.8083 5.98139 11.3909C5.84791 11.2087 5.82793 10.8524 5.93979 10.6495C6.12833 10.3075 6.63227 10.1809 6.92741 10.4014ZM14.9149 10.419C15.0979 10.5494 15.1966 10.7574 15.1966 11.0125C15.1966 11.5174 14.6001 11.8507 14.1683 11.5871C13.7466 11.3299 13.7083 10.6993 14.0977 10.4229C14.169 10.3722 14.2695 10.3193 14.3211 10.3052C14.4801 10.262 14.7735 10.3182 14.9149 10.419Z" fill="#DC7AB5"/>
</svg>
