<svg width="0" height="0" class="hidden">
    <symbol id="map_icon" viewBox="0 0 16 16" fill="none" xmlns="http://www.w3.org/2000/svg">
        <path fill-rule="evenodd" clip-rule="evenodd" d="M7.48153 0.0266348C5.57188 0.228517 3.92552 1.55443 3.29923 3.39491C3.13948 3.86434 3.0744 4.2434 3.05642 4.8095C3.03786 5.39294 3.0911 5.80037 3.26982 6.44288C3.6177 7.69359 4.42991 9.35702 5.54471 11.1019C5.69583 11.3384 5.81948 11.5435 5.81948 11.5577C5.81948 11.5718 5.66178 11.6012 5.46901 11.6231C4.29113 11.7566 3.16705 12.0474 2.43942 12.4069C1.69144 12.7764 1.3335 13.2063 1.3335 13.735C1.3335 14.2634 1.69599 14.6991 2.43942 15.0643C4.97951 16.3119 11.0208 16.3119 13.5609 15.0643C14.3043 14.6991 14.6668 14.2634 14.6668 13.735C14.6668 13.2063 14.3089 12.7764 13.5609 12.4069C12.8333 12.0474 11.7092 11.7566 10.5313 11.6231C10.3386 11.6012 10.1808 11.5718 10.1808 11.5577C10.1808 11.5435 10.3045 11.3384 10.4556 11.1019C11.5704 9.35702 12.3826 7.69359 12.7305 6.44288C12.9092 5.80037 12.9625 5.39294 12.9439 4.8095C12.9128 3.83019 12.6638 3.04364 12.1265 2.22702C11.1189 0.695563 9.30076 -0.165711 7.48153 0.0266348ZM8.65437 1.0589C9.51621 1.19506 10.4203 1.70666 10.992 2.38172C11.6643 3.17562 11.9856 4.08798 11.9461 5.09089C11.9016 6.22008 11.286 7.76776 10.062 9.82763C9.51362 10.7504 8.07596 12.876 8.00016 12.876C7.96399 12.876 7.10599 11.6601 6.65437 10.9688C5.92054 9.84561 5.44069 9.00947 4.9677 8.02986C4.03325 6.09442 3.8411 4.94059 4.2492 3.71526C4.6516 2.50703 5.60836 1.56969 6.83051 1.18628C6.99633 1.13425 7.23973 1.0771 7.37138 1.05924C7.50303 1.04136 7.65281 1.02079 7.70421 1.0135C7.84063 0.99415 8.41957 1.02179 8.65437 1.0589ZM7.5192 2.70376C6.65758 2.8891 5.96845 3.56337 5.75303 4.4319C5.66247 4.79702 5.68113 5.34026 5.79639 5.69363C5.98907 6.2843 6.42396 6.78505 6.99365 7.0721C7.58677 7.371 8.41356 7.371 9.00667 7.0721C9.57636 6.78505 10.0113 6.2843 10.2039 5.69363C10.3192 5.34026 10.3379 4.79702 10.2473 4.4319C10.1075 3.86856 9.75181 3.35952 9.27602 3.04205C8.7611 2.69847 8.11873 2.57478 7.5192 2.70376ZM8.34284 3.7097C9.16857 3.92749 9.56237 4.89563 9.13023 5.64548C9.01356 5.84792 8.78434 6.05875 8.57044 6.16033C7.83449 6.50985 6.99745 6.138 6.73963 5.34695C6.66702 5.12425 6.68583 4.73546 6.78104 4.4914C6.9687 4.01025 7.48543 3.65626 8.00016 3.65626C8.07727 3.65626 8.23147 3.68031 8.34284 3.7097ZM6.76994 12.9151C7.6787 14.1721 7.72428 14.2205 8.00016 14.2205C8.27605 14.2205 8.32163 14.1721 9.23038 12.9151C9.39755 12.6839 9.52833 12.5321 9.56038 12.5321C9.68446 12.5321 10.5223 12.6299 10.889 12.6872C12.1114 12.8783 13.1632 13.2281 13.5269 13.5646C13.6056 13.6373 13.6699 13.715 13.6699 13.7371C13.6699 13.8137 13.3729 14.0395 13.0936 14.1752C11.2687 15.0617 6.9239 15.266 4.15281 14.5954C3.63702 14.4706 3.23745 14.3359 2.9067 14.1752C2.62745 14.0395 2.33038 13.8137 2.33038 13.7371C2.33038 13.6517 2.62714 13.4271 2.93294 13.2811C3.5754 12.9745 4.67736 12.7149 5.91294 12.5793C6.54116 12.5103 6.452 12.4754 6.76994 12.9151Z" fill="currentColor"/>
    </symbol>
    <symbol id="youtube" viewBox="0 0 28 28" fill="none" xmlns="http://www.w3.org/2000/svg">
        <path fill-rule="evenodd" clip-rule="evenodd" d="M12.3476 6.40093C10.5497 6.45269 8.30038 6.64011 7.80937 6.77909C7.18815 6.95496 6.47548 7.42745 6.071 7.93162C5.48321 8.66434 5.3025 9.24117 5.14352 10.8924C4.95216 12.8796 4.95216 14.4411 5.14352 16.4283C5.3025 18.0795 5.48321 18.6564 6.071 19.3891C6.47161 19.8884 7.19662 20.3692 7.80937 20.5419C8.21273 20.6556 9.33652 20.7647 11.2753 20.8785C12.286 20.9378 15.714 20.9378 16.7247 20.8785C18.6664 20.7646 19.7882 20.6555 20.1906 20.5416C20.8119 20.3657 21.5245 19.8933 21.929 19.3891C22.5168 18.6564 22.6975 18.0795 22.8565 16.4283C23.0478 14.4411 23.0478 12.8796 22.8565 10.8924C22.7258 9.53534 22.6032 9.01452 22.2815 8.44953C21.7664 7.54505 20.855 6.88161 19.8888 6.70792C19.3572 6.61239 17.4596 6.47144 15.9161 6.41291C15.0695 6.38079 13.2585 6.37471 12.3476 6.40093ZM15.9161 7.87018C16.9522 7.91021 18.0684 7.98265 19.0275 8.07213C19.7285 8.13751 20.0725 8.23566 20.4073 8.46592C20.787 8.72694 21.1064 9.16392 21.2558 9.62635C21.3217 9.83027 21.4284 10.6445 21.5125 11.5844C21.5968 12.5275 21.5968 14.7932 21.5125 15.7363C21.4284 16.6762 21.3217 17.4904 21.2558 17.6944C21.149 18.0249 20.9811 18.3037 20.7336 18.5611C20.2899 19.0228 19.9436 19.1622 19.0275 19.2482C15.8969 19.542 12.8508 19.5599 9.64053 19.3035C9.12811 19.2626 8.60034 19.2133 8.46772 19.1941C7.67265 19.0786 7.00312 18.496 6.74418 17.6944C6.6783 17.4904 6.5716 16.6762 6.4875 15.7363C6.40316 14.7932 6.40316 12.5275 6.4875 11.5844C6.5716 10.6445 6.6783 9.83027 6.74418 9.62635C7.00568 8.81679 7.6763 8.23869 8.48622 8.12462C9.07242 8.04209 11.2218 7.89469 12.3828 7.85743C13.2092 7.83092 15.0737 7.83766 15.9161 7.87018ZM11.8027 10.3056C11.6325 10.387 11.5254 10.5023 11.4528 10.6823C11.4052 10.8002 11.3985 11.1743 11.3992 13.6501C11.3999 16.3115 11.4038 16.4918 11.4639 16.629C11.5941 16.9256 11.9195 17.116 12.2098 17.0652C12.2874 17.0516 12.7025 16.831 13.1814 16.5488C13.6413 16.2778 14.6583 15.679 15.4414 15.2181C16.2246 14.7572 16.9396 14.3318 17.0304 14.2727C17.3921 14.0372 17.4797 13.5171 17.2129 13.1886C17.1592 13.1225 16.611 12.7764 15.8344 12.3181C12.8379 10.5503 12.4652 10.3324 12.3575 10.2858C12.2003 10.2177 11.9693 10.2259 11.8027 10.3056ZM15.1378 13.5863C15.2149 13.636 15.2272 13.6583 15.1905 13.6821C15.0772 13.7557 12.8289 15.0808 12.8174 15.0808C12.8104 15.0808 12.8047 14.4346 12.8047 13.6449V12.209L13.9209 12.8653C14.5348 13.2263 15.0824 13.5508 15.1378 13.5863Z" fill="currentColor"/>
    </symbol>
    <symbol id="vk" viewBox="0 0 28 28" fill="none" xmlns="http://www.w3.org/2000/svg">
        <path fill-rule="evenodd" clip-rule="evenodd" d="M4.89528 7.90181C4.62241 7.97233 4.44423 8.07286 4.27906 8.24946C3.87534 8.68109 3.90493 9.27629 4.39879 10.659C5.1099 12.65 6.36122 14.8106 7.74404 16.4351C9.51125 18.5112 11.3717 19.6918 13.491 20.0818C14.0078 20.177 15.2212 20.1781 15.6214 20.0839C16.287 19.9271 16.6509 19.6449 16.7737 19.1903C16.7908 19.1267 16.8018 18.6372 16.798 18.1024C16.7942 17.5677 16.8033 17.0691 16.8182 16.9946L16.8453 16.859L17.079 16.976C17.5778 17.2256 18.2654 17.8146 19.2874 18.8679C20.0504 19.6543 20.2816 19.8485 20.6534 20.0154L20.9613 20.1537H22.4594C24.2332 20.1537 24.2555 20.1499 24.6417 19.7873C24.8282 19.6122 24.8892 19.5227 24.945 19.3427C25.2087 18.4909 24.5563 17.4756 22.2919 15.2139C21.8422 14.7648 21.4743 14.3864 21.4743 14.3731C21.4743 14.3597 21.6569 14.1029 21.8801 13.8024C22.7332 12.6538 23.6426 11.2474 24.1022 10.3659C24.5076 9.58834 24.5703 9.4006 24.5718 8.95942C24.5733 8.53061 24.5014 8.36249 24.22 8.13637C23.891 7.87198 23.81 7.86119 22.1516 7.86119C20.701 7.86119 20.6696 7.86285 20.4381 7.95063C20.305 8.00107 20.1039 8.12438 19.9767 8.23355C19.7441 8.43308 19.7194 8.47358 19.2574 9.41286C18.6499 10.6478 17.8593 11.871 17.1794 12.628C16.7438 13.113 16.7782 13.2514 16.8065 11.1316C16.8382 8.75974 16.8072 8.51346 16.4309 8.14854C16.1107 7.83803 16.1037 7.83722 13.8109 7.85013L11.8432 7.86119L11.6011 7.97749C11.175 8.18211 10.9217 8.612 10.9823 9.02744C11.0155 9.25487 11.1632 9.5554 11.3688 9.81385C11.4586 9.92675 11.5692 10.0886 11.6145 10.1735C11.7971 10.5153 11.8049 10.5995 11.8065 12.2481L11.8081 13.8219L11.6491 13.6546C11.442 13.4365 10.8788 12.6317 10.5757 12.1207C10.0816 11.2876 9.58665 10.2448 9.1615 9.14123C8.88707 8.42888 8.66214 8.15174 8.19386 7.94905C7.99618 7.8635 7.95337 7.86096 6.55429 7.85275C5.38675 7.84589 5.07604 7.8551 4.89528 7.90181ZM7.73419 9.14246C7.76928 9.17957 7.85363 9.35729 7.92156 9.53744C8.54385 11.1875 9.4164 12.8382 10.2689 13.9782C10.603 14.425 11.2428 15.0305 11.5372 15.1786C12.0106 15.4168 12.589 15.3362 12.8567 14.9948C13.1162 14.664 13.1216 14.6138 13.1216 12.5046C13.1216 10.7829 13.1141 10.5671 13.0454 10.2889C12.9639 9.95912 12.7492 9.4833 12.5946 9.28974C12.5426 9.22462 12.4864 9.14971 12.4698 9.12319C12.4458 9.08501 12.7549 9.07503 13.9606 9.07503H15.4817L15.4835 11.0114C15.4845 12.0764 15.5006 13.1216 15.5194 13.334C15.5596 13.7894 15.6707 14.0678 15.8813 14.2415C16.0692 14.3963 16.193 14.4373 16.47 14.4362C17.0778 14.434 17.7975 13.9337 18.5403 12.9971C19.2348 12.1214 19.9083 11.033 20.496 9.83639C20.6756 9.47062 20.8527 9.14971 20.8895 9.12319C20.9393 9.08732 21.2478 9.07503 22.0979 9.07503C22.984 9.07503 23.2391 9.08581 23.2385 9.12319C23.2381 9.14971 23.1738 9.31729 23.0955 9.49567C22.8245 10.1135 21.9328 11.5177 20.9648 12.8514C20.2882 13.7836 20.1436 14.0551 20.145 14.3908C20.147 14.8458 20.2484 14.9869 21.3507 16.069C21.8425 16.5518 22.5354 17.288 22.878 17.6918C23.2512 18.1315 23.6908 18.7987 23.6908 18.9253C23.6908 18.9333 23.1521 18.9398 22.4938 18.9398H21.2969L21.123 18.8442C21.0269 18.7913 20.6877 18.477 20.3641 18.1409C18.9279 16.6498 17.9837 15.9127 17.2335 15.6972C16.8288 15.5809 16.3134 15.606 16.0423 15.7552C15.8103 15.8828 15.6735 16.0668 15.5796 16.3773C15.5225 16.5659 15.5075 16.8137 15.498 17.7232C15.4876 18.7161 15.4789 18.8419 15.418 18.8739C15.3804 18.8936 15.1254 18.9187 14.8513 18.9296C13.3813 18.9882 11.8974 18.4527 10.5089 17.3627C9.17033 16.3119 7.86549 14.7019 6.78571 12.7688C6.15192 11.6342 5.4732 10.0103 5.36266 9.36403C5.34813 9.27926 5.3274 9.17957 5.31657 9.14246C5.29814 9.07938 5.37325 9.07503 6.48361 9.07503C7.56212 9.07503 7.67615 9.08119 7.73419 9.14246Z" fill="currentColor"/>
    </symbol>
    <symbol id="instagram" viewBox="0 0 28 28" fill="none" xmlns="http://www.w3.org/2000/svg">
        <path d="M14 9.89286C13.2619 9.89286 12.5714 10.0833 11.9286 10.4643C11.3095 10.8214 10.8095 11.3214 10.4286 11.9643C10.0714 12.5833 9.89286 13.2619 9.89286 14C9.89286 14.7381 10.0714 15.4286 10.4286 16.0714C10.8095 16.6905 11.3095 17.1905 11.9286 17.5714C12.5714 17.9286 13.2619 18.1071 14 18.1071C14.7381 18.1071 15.4167 17.9286 16.0357 17.5714C16.6786 17.1905 17.1786 16.6905 17.5357 16.0714C17.9167 15.4286 18.1071 14.7381 18.1071 14C18.1071 13.2619 17.9167 12.5833 17.5357 11.9643C17.1786 11.3214 16.6786 10.8214 16.0357 10.4643C15.4167 10.0833 14.7381 9.89286 14 9.89286ZM14 16.6786C13.2619 16.6786 12.631 16.4167 12.1071 15.8929C11.5833 15.369 11.3214 14.7381 11.3214 14C11.3214 13.2619 11.5833 12.631 12.1071 12.1071C12.631 11.5833 13.2619 11.3214 14 11.3214C14.7381 11.3214 15.369 11.5833 15.8929 12.1071C16.4167 12.631 16.6786 13.2619 16.6786 14C16.6786 14.7381 16.4167 15.369 15.8929 15.8929C15.369 16.4167 14.7381 16.6786 14 16.6786ZM19.25 9.71429C19.2262 9.97619 19.119 10.2024 18.9286 10.3929C18.7619 10.5833 18.5476 10.6786 18.2857 10.6786C18.0238 10.6786 17.7976 10.5833 17.6071 10.3929C17.4167 10.2024 17.3214 9.97619 17.3214 9.71429C17.3214 9.45238 17.4167 9.22619 17.6071 9.03571C17.7976 8.84524 18.0238 8.75 18.2857 8.75C18.5476 8.75 18.7738 8.84524 18.9643 9.03571C19.1548 9.22619 19.25 9.45238 19.25 9.71429ZM21.9643 10.6786C21.9167 9.9881 21.8095 9.39286 21.6429 8.89286C21.4286 8.29762 21.0952 7.78571 20.6429 7.35714C20.2143 6.90476 19.7024 6.57143 19.1071 6.35714C18.6071 6.19048 18.0119 6.09524 17.3214 6.07143C16.6548 6.02381 15.5476 6 14 6C12.4524 6 11.3333 6.02381 10.6429 6.07143C9.97619 6.09524 9.39286 6.19048 8.89286 6.35714C8.29762 6.57143 7.77381 6.90476 7.32143 7.35714C6.89286 7.78571 6.57143 8.29762 6.35714 8.89286C6.19048 9.39286 6.08333 9.9881 6.03571 10.6786C6.0119 11.3452 6 12.4524 6 14C6 15.5476 6.0119 16.6667 6.03571 17.3571C6.08333 18.0238 6.19048 18.6071 6.35714 19.1071C6.57143 19.7024 6.89286 20.2262 7.32143 20.6786C7.77381 21.1071 8.29762 21.4167 8.89286 21.6071C9.39286 21.7976 9.97619 21.9048 10.6429 21.9286C11.3333 21.9762 12.4524 22 14 22C15.5476 22 16.6548 21.9762 17.3214 21.9286C18.0119 21.9048 18.6071 21.8095 19.1071 21.6429C19.7024 21.4286 20.2143 21.1071 20.6429 20.6786C21.0952 20.2262 21.4286 19.7024 21.6429 19.1071C21.8095 18.6071 21.9048 18.0238 21.9286 17.3571C21.9762 16.6667 22 15.5476 22 14C22 12.4524 21.9881 11.3452 21.9643 10.6786ZM20.25 18.7143C19.9643 19.4286 19.4524 19.9405 18.7143 20.25C18.3333 20.3929 17.6905 20.4881 16.7857 20.5357C16.2857 20.5595 15.5476 20.5714 14.5714 20.5714H13.4286C12.4762 20.5714 11.7381 20.5595 11.2143 20.5357C10.3333 20.4881 9.69048 20.3929 9.28571 20.25C8.57143 19.9643 8.05952 19.4524 7.75 18.7143C7.60714 18.3095 7.5119 17.6667 7.46429 16.7857C7.44048 16.2619 7.42857 15.5238 7.42857 14.5714V13.4286C7.42857 12.4762 7.44048 11.7381 7.46429 11.2143C7.5119 10.3095 7.60714 9.66667 7.75 9.28571C8.03571 8.54762 8.54762 8.03571 9.28571 7.75C9.69048 7.60714 10.3333 7.5119 11.2143 7.46429C11.7381 7.44048 12.4762 7.42857 13.4286 7.42857H14.5714C15.5238 7.42857 16.2619 7.44048 16.7857 7.46429C17.6905 7.5119 18.3333 7.60714 18.7143 7.75C19.4524 8.03571 19.9643 8.54762 20.25 9.28571C20.3929 9.66667 20.4881 10.3095 20.5357 11.2143C20.5595 11.7143 20.5714 12.4524 20.5714 13.4286V14.5714C20.5714 15.5238 20.5595 16.2619 20.5357 16.7857C20.4881 17.6667 20.3929 18.3095 20.25 18.7143Z" fill="currentColor"/>
    </symbol>
    <symbol id="user" viewBox="0 0 16 16" fill="none" xmlns="http://www.w3.org/2000/svg">
        <path fill-rule="evenodd" clip-rule="evenodd" d="M7.42748 2.01177C6.20202 2.31121 5.37079 3.06681 5.05336 4.16982C4.93385 4.58509 4.92343 5.24061 5.02997 5.64349C5.19139 6.25416 5.6107 6.89709 6.08636 7.26319L6.2873 7.41789L5.83304 7.58985C4.31466 8.1646 3.04605 9.38777 2.42942 10.8716C2.13542 11.579 1.9212 12.7472 2.02778 13.0616C2.1271 13.3547 1.6485 13.333 7.99336 13.333C14.3487 13.333 13.8804 13.3542 13.9795 13.062C14.033 12.9042 13.9769 12.2605 13.8691 11.7951C13.4298 9.8981 12.0107 8.28144 10.1783 7.59064L9.72007 7.41789L9.92683 7.25874C10.3957 6.89779 10.8126 6.25637 10.9766 5.64349C11.0739 5.27984 11.0722 4.58929 10.9731 4.23029C10.698 3.23382 9.97279 2.46845 8.97727 2.12396C8.71136 2.03198 8.58011 2.01419 8.08905 2.00346C7.77214 1.99656 7.47443 2.0003 7.42748 2.01177ZM8.43909 2.86244C9.02187 2.97928 9.64107 3.42797 9.91812 3.93419C10.5623 5.11109 9.94923 6.58435 8.65319 6.97419C8.28309 7.0855 7.72412 7.08566 7.35726 6.97452C6.44907 6.69945 5.82689 5.86532 5.82689 4.9228C5.82689 3.61347 7.11551 2.59709 8.43909 2.86244ZM8.79331 8.10005C9.22231 8.15404 9.91564 8.37646 10.3656 8.6044C11.7701 9.31599 12.8389 10.7589 13.0751 12.2627L13.1126 12.5017H8.00369H2.89474L2.93166 12.2627C3.14093 10.9078 4.02642 9.59904 5.26071 8.82049C6.29507 8.16805 7.45471 7.93155 8.79331 8.10005Z" fill="currentColor"/>
    </symbol>
</svg>