<svg width="30" height="42" viewBox="0 0 30 42" fill="none" xmlns="http://www.w3.org/2000/svg">
    <path d="M15 0C6.70714 0 0 6.67871 0 14.9364C0 24.3823 10.665 37.621 14.0094 41.5402C14.5326 42.1533 15.4674 42.1533 15.9906 41.5402C19.335 37.621 30 24.3823 30 14.9364C30 6.67871 23.2929 0 15 0Z" fill="#4772DA"/>
    <g clip-path="url(#clip0_2555_244435)">
        <path fill-rule="evenodd" clip-rule="evenodd" d="M5.75195 14.9994L15.0924 6.63066C15.3329 6.41634 15.6884 6.41841 15.9111 6.61822L25.2524 14.9952C25.4752 15.1929 25.4452 15.5593 25.2036 15.7736L15.8648 24.0071C15.6232 24.2214 15.2701 24.2172 15.0459 24.0196L5.703 15.7798C5.4787 15.5821 5.51123 15.2158 5.75195 14.9994V14.9994ZM6.02862 15.0098C5.79543 15.22 5.76328 15.5738 5.98107 15.7653L15.0581 23.7718C15.2759 23.9654 15.6189 23.9675 15.8538 23.7615L24.927 15.7611C25.1617 15.553 25.1907 15.1971 24.9745 15.0036L15.8985 6.8659C15.6824 6.67234 15.3367 6.66819 15.1032 6.8784L6.02862 15.0098V15.0098Z" fill="white"/>
        <path fill-rule="evenodd" clip-rule="evenodd" d="M20.1558 18.935C20.0945 19.0474 20.0129 19.1556 19.9092 19.2576C19.7782 19.3866 19.6084 19.4907 19.3989 19.5677C19.1905 19.6426 18.9453 19.678 18.6646 19.6739C18.3075 19.6655 17.9714 19.5822 17.6555 19.4241C17.3981 19.295 17.1615 19.1306 16.9465 18.935C16.897 18.8892 16.8493 18.8434 16.8023 18.7955C16.5487 18.5354 16.3317 18.2482 16.1505 17.9381C15.9691 17.6259 15.8183 17.3075 15.6965 16.9765C15.4868 17.1618 15.333 17.297 15.2352 17.3886C15.1373 17.4781 15.0321 17.5801 14.9179 17.6946C14.8035 17.809 14.6956 17.9214 14.5927 18.0317C14.2724 18.3606 14.0107 18.6124 13.807 18.7893C13.7465 18.8434 13.6887 18.8913 13.6337 18.935H13.6335C13.5045 19.039 13.3911 19.1161 13.2942 19.166C13.1551 19.2409 13.0321 19.2763 12.9249 19.2742C12.8175 19.2722 12.7385 19.243 12.6859 19.1889C12.6335 19.1348 12.6089 19.0682 12.6106 18.987C12.611 18.9703 12.6125 18.9537 12.6153 18.935C12.6615 18.6062 13.0633 17.9714 13.8199 17.0369C13.9936 16.8142 14.0916 16.6789 14.1246 16.6393C14.7636 15.8735 15.0728 15.6591 15.274 15.247C15.3493 15.0243 15.2981 14.8516 15.1898 14.8058C14.9509 14.8432 14.7078 14.8578 14.46 14.8537C14.1496 14.8474 13.8631 14.81 13.5963 14.7455C13.3308 14.6789 13.1018 14.5956 12.9101 14.4957C12.7187 14.3937 12.5725 14.2876 12.4722 14.1773C12.3733 14.0649 12.3243 13.9608 12.3264 13.8651C12.3273 13.8317 12.3335 13.8027 12.3461 13.7735C12.4783 13.2928 14.9466 13.428 15.6152 14.4166C15.9862 14.273 16.3178 14.0794 16.6101 13.838C16.908 13.5904 17.1412 13.3239 17.3121 13.0388C17.482 12.7537 17.5701 12.4831 17.5762 12.223C17.5798 12.0627 17.549 11.917 17.482 11.7942C17.4168 11.6693 17.3243 11.5673 17.2073 11.482C17.0896 11.3988 16.9503 11.3322 16.7886 11.2864C16.6272 11.2385 16.4485 11.2136 16.2547 11.2094C15.9387 11.201 15.6124 11.249 15.2741 11.353C14.9363 11.455 14.588 11.609 14.2305 11.8151C13.8721 12.0211 13.5098 12.2792 13.1423 12.5872C12.7755 12.8952 12.4182 13.2407 12.0704 13.6216C11.9043 14.0482 11.731 14.4874 11.5481 14.9452C11.3667 15.401 11.1882 15.7611 11.0145 16.0254C10.8392 16.2897 10.6561 16.4208 10.4655 16.4167C10.3182 16.4125 10.1916 16.3626 10.0852 16.2648C9.97928 16.169 9.92815 16.0483 9.9318 15.9026C9.93332 15.8235 9.97394 15.6987 10.054 15.5322C10.1333 15.3656 10.3141 15.1076 10.5968 14.7621C10.8788 14.4166 11.2967 13.9774 11.8508 13.4467C12.1345 12.8286 12.3583 12.3208 12.5205 11.9316C12.3201 12.0481 12.1089 12.1065 11.8887 12.1002C11.7081 12.096 11.5543 12.0336 11.4291 11.915C11.3044 11.7962 11.2216 11.6631 11.1826 11.5153L11.1843 11.4466C11.1891 11.4425 11.2014 11.4404 11.2246 11.4404C11.2449 11.4404 11.2599 11.4425 11.2702 11.4446C11.2791 11.4487 11.2913 11.4508 11.3063 11.4529C11.3198 11.455 11.3369 11.4591 11.354 11.4633C11.3981 11.4737 11.4334 11.4779 11.4576 11.48C11.549 11.482 11.6704 11.4446 11.8204 11.3717C11.9715 11.2989 12.1247 11.2073 12.2789 11.0991C12.4332 10.9908 12.5635 10.8848 12.6709 10.7869C12.7826 10.6849 12.8632 10.6058 12.9139 10.5455C12.9645 10.4892 13.0114 10.431 13.0548 10.3748C13.0982 10.3207 13.1273 10.2936 13.1399 10.2936C13.1844 10.2936 13.2345 10.4061 13.2897 10.6287C13.3451 10.8514 13.371 11.0242 13.3682 11.1469C13.3657 11.2635 13.3132 11.3842 13.2126 11.5049C13.1115 11.6256 12.9895 11.7297 12.8444 11.8129C12.7877 11.9774 12.7366 12.1147 12.6917 12.225C12.6468 12.3354 12.595 12.4581 12.5359 12.5893C12.4771 12.7224 12.4156 12.8515 12.3536 12.9805C12.7683 12.5622 13.2398 12.1605 13.7681 11.7755C14.2962 11.3926 14.8387 11.0783 15.3944 10.8389C15.9505 10.5975 16.4687 10.481 16.9503 10.4935C17.258 10.4997 17.525 10.5684 17.7535 10.7016C17.9816 10.8327 18.1522 11.0034 18.2685 11.2136C18.3834 11.4237 18.439 11.6402 18.4337 11.865C18.4256 12.2084 18.3152 12.5622 18.1001 12.9222C17.8854 13.2844 17.5948 13.6133 17.2283 13.9067C16.8619 14.2022 16.4387 14.4353 15.9588 14.6101C15.9058 14.6289 15.8521 14.6476 15.7986 14.6643C15.8033 14.6726 15.806 14.685 15.8059 14.7018C15.7997 14.9744 15.743 15.2074 15.6357 15.401C15.5284 15.5925 15.4235 15.7361 15.3199 15.8297C15.216 15.9255 15.0176 16.0941 14.726 16.3396C14.4335 16.5853 14.3132 16.8038 14.1945 16.9578L13.5167 17.7091C13.4454 17.7882 13.3995 17.8569 13.3652 17.9006C13.3299 17.9443 13.3025 17.9839 13.2837 18.0193C13.2632 18.0546 13.2535 18.0817 13.2529 18.1046C13.2521 18.1566 13.2728 18.1837 13.3151 18.1837C13.3528 18.1836 13.4303 18.1462 13.546 18.0692C13.6633 17.9942 14.0817 17.7071 14.8022 17.2117C15.4967 16.733 16.0936 16.3376 16.5891 16.0254C17.0864 15.7111 17.5098 15.4635 17.8611 15.2824C18.211 15.1013 18.5071 14.9744 18.7486 14.8974C18.9902 14.8225 19.2091 14.7871 19.4053 14.7912C19.6255 14.7974 19.7906 14.8557 19.9002 14.9682C20.0085 15.0826 20.0602 15.2449 20.0555 15.4573C20.0517 15.6279 19.9941 15.7965 19.882 15.9672C19.7693 16.1378 19.6323 16.296 19.4716 16.4375C19.3105 16.5811 19.1505 16.6956 18.9919 16.7851C18.8336 16.8724 18.7185 16.9141 18.6477 16.9141C18.6079 16.912 18.5875 16.8953 18.5884 16.86C18.5893 16.8371 18.6053 16.81 18.6369 16.7788C18.9573 16.4999 19.1212 16.2398 19.1265 15.9963C19.1319 15.7632 19.0751 15.5966 18.9566 15.4988C18.8364 15.401 18.726 15.3511 18.6241 15.349C18.419 15.3427 18.1446 15.4073 17.7993 15.5363C17.4548 15.6675 16.9755 15.9588 16.3621 16.4125C16.5076 16.7642 16.6878 17.1118 16.9028 17.4511C17.1187 17.7924 17.3547 18.0983 17.6112 18.371C17.8246 18.5978 18.0439 18.7851 18.2674 18.935C18.3118 18.9662 18.3567 18.9933 18.4023 19.0203C18.6723 19.1805 18.931 19.2639 19.1783 19.2701C19.4522 19.2763 19.6777 19.1952 19.8563 19.0286C19.8882 18.9974 19.9171 18.9662 19.9436 18.935C20.0637 18.7893 20.1257 18.629 20.1295 18.4522C20.1321 18.3481 20.1246 18.269 20.1066 18.2149C20.0893 18.1608 20.0816 18.1067 20.0827 18.0505C20.0831 18.0275 20.0942 18.0067 20.1176 17.9922L20.2004 17.9942C20.274 18.0338 20.3073 18.1732 20.3017 18.4168C20.2985 18.5521 20.2656 18.6935 20.2019 18.8393C20.1882 18.8725 20.1728 18.9038 20.1558 18.935V18.935ZM13.3368 13.838C13.2957 13.992 13.3721 14.2876 13.5819 14.3937C13.7452 14.477 13.9771 14.6039 14.4324 14.631C14.5734 14.6393 14.7142 14.633 14.8545 14.6164C14.7151 13.9754 14.1607 13.7298 13.3368 13.838ZM24.4438 15.0222L15.8752 7.33828C15.6711 7.15511 15.345 7.15304 15.124 7.35077L6.55707 15.0264C6.33647 15.2241 6.30651 15.5592 6.51212 15.7402L10.1333 18.935L15.0818 23.2994C15.2874 23.4804 15.6113 23.4846 15.8326 23.289L20.7702 18.935L24.3987 15.7361C24.6208 15.5405 24.6477 15.2033 24.4438 15.0222V15.0222Z" fill="white"/>
    </g>
    <defs>
        <clipPath id="clip0_2555_244435">
            <rect width="19.7727" height="17.6121" fill="white" transform="translate(5.55176 6.46912)"/>
        </clipPath>
    </defs>
</svg>
